<?xml version="1.0" encoding="utf-8"?>
<!-- Generator: Adobe Illustrator 16.0.0, SVG Export Plug-In . SVG Version: 6.00 Build 0)  -->
<!DOCTYPE svg PUBLIC "-//W3C//DTD SVG 1.1//EN" "http://www.w3.org/Graphics/SVG/1.1/DTD/svg11.dtd">
<svg version="1.1" id="Layer_1" xmlns="http://www.w3.org/2000/svg" xmlns:xlink="http://www.w3.org/1999/xlink" x="0px" y="0px"
	 width="270.275px" height="41.744px" viewBox="18.552 13.036 270.275 41.744"
	 enable-background="new 18.552 13.036 270.275 41.744" xml:space="preserve">
<g>
	<path fill="#009444" d="M69.835,31.448h8.968v12.871c-1.024,0.969-2.221,1.667-3.591,2.096c-1.37,0.429-2.733,0.644-4.089,0.644
		c-1.633,0-3.114-0.291-4.442-0.872c-1.328-0.581-2.457-1.487-3.384-2.72c-0.928-1.23-1.647-2.795-2.159-4.692
		c-0.513-1.895-0.768-4.172-0.768-6.829c0-2.767,0.304-5.107,0.913-7.016c0.609-1.91,1.418-3.467,2.429-4.671
		c1.01-1.204,2.186-2.076,3.529-2.616c1.343-0.54,2.761-0.81,4.256-0.81c1.329,0,2.539,0.118,3.633,0.353
		c1.093,0.235,1.999,0.506,2.719,0.81l-1.08,4.525c-0.554-0.249-1.197-0.457-1.93-0.623c-0.734-0.166-1.626-0.249-2.678-0.249
		c-0.969,0-1.847,0.194-2.636,0.581c-0.789,0.388-1.453,0.997-1.993,1.827c-0.539,0.831-0.955,1.903-1.245,3.218
		c-0.291,1.315-0.436,2.885-0.436,4.712c0,3.515,0.532,6.103,1.599,7.764c1.065,1.661,2.47,2.491,4.214,2.491
		c0.553,0,1.085-0.083,1.598-0.251c0.512-0.167,0.962-0.434,1.35-0.798v-6.007l-4.774-0.65L69.835,31.448L69.835,31.448z"/>
	<path fill="#009444" d="M91.59,30.618c-0.665-0.249-1.273-0.374-1.827-0.374c-0.747,0-1.391,0.208-1.93,0.623
		c-0.54,0.416-0.907,0.997-1.101,1.744v13.867h-4.94v-20.76h3.778l0.581,2.492h0.166c0.359-0.914,0.878-1.625,1.557-2.138
		c0.677-0.512,1.459-0.768,2.346-0.768c0.665,0,1.314,0.139,1.952,0.415L91.59,30.618z"/>
	<path fill="#009444" d="M107.99,44.941c-0.692,0.609-1.633,1.107-2.823,1.495s-2.436,0.581-3.736,0.581
		c-1.439,0-2.678-0.249-3.716-0.748c-1.038-0.498-1.889-1.218-2.553-2.159c-0.664-0.94-1.156-2.083-1.474-3.425
		c-0.319-1.342-0.478-2.871-0.478-4.587c0-3.737,0.74-6.498,2.222-8.283c1.48-1.785,3.535-2.678,6.165-2.678
		c0.885,0,1.744,0.132,2.574,0.395c0.831,0.263,1.571,0.706,2.221,1.329c0.65,0.622,1.177,1.453,1.578,2.491
		c0.4,1.038,0.602,2.346,0.602,3.923c0,0.61-0.035,1.26-0.104,1.952c-0.069,0.692-0.173,1.44-0.312,2.242H98.067
		c0.056,1.716,0.415,3.031,1.08,3.944c0.664,0.913,1.729,1.37,3.197,1.37c0.886,0,1.695-0.139,2.429-0.415
		c0.733-0.277,1.294-0.567,1.681-0.872L107.99,44.941z M101.513,29.372c-1.052,0-1.841,0.422-2.367,1.266
		c-0.526,0.845-0.831,2.028-0.914,3.55h5.729c0.083-1.578-0.083-2.774-0.499-3.591C103.049,29.781,102.398,29.372,101.513,29.372z"
		/>
	<path fill="#009444" d="M125.759,44.941c-0.692,0.609-1.634,1.107-2.823,1.495c-1.19,0.388-2.436,0.581-3.736,0.581
		c-1.44,0-2.678-0.249-3.716-0.748c-1.039-0.498-1.889-1.218-2.553-2.159c-0.664-0.94-1.156-2.083-1.474-3.425
		c-0.318-1.342-0.478-2.871-0.478-4.587c0-3.737,0.74-6.498,2.221-8.283c1.481-1.785,3.535-2.678,6.166-2.678
		c0.886,0,1.744,0.132,2.574,0.395c0.831,0.263,1.571,0.706,2.222,1.329c0.65,0.622,1.175,1.453,1.578,2.491
		c0.401,1.038,0.602,2.346,0.602,3.923c0,0.61-0.035,1.26-0.104,1.952c-0.07,0.692-0.173,1.44-0.312,2.242h-10.089
		c0.056,1.716,0.415,3.031,1.08,3.944s1.729,1.37,3.197,1.37c0.885,0,1.695-0.139,2.428-0.415c0.733-0.277,1.294-0.567,1.682-0.872
		L125.759,44.941z M119.282,29.372c-1.053,0-1.842,0.422-2.366,1.266c-0.526,0.845-0.831,2.028-0.914,3.55h5.729
		c0.083-1.578-0.083-2.774-0.499-3.591C120.819,29.781,120.167,29.372,119.282,29.372z"/>
	<path fill="#009444" d="M139.791,46.477V33.856c0-1.521-0.18-2.587-0.54-3.197c-0.359-0.608-0.969-0.914-1.827-0.914
		c-0.72,0-1.342,0.222-1.868,0.665c-0.526,0.443-0.899,0.997-1.121,1.661v14.406h-4.941V25.718h3.944l0.581,2.408h0.125
		c0.499-0.803,1.176-1.487,2.035-2.055c0.857-0.567,1.979-0.851,3.363-0.851c0.83,0,1.57,0.125,2.222,0.374
		c0.649,0.25,1.196,0.658,1.64,1.226c0.442,0.567,0.774,1.328,0.997,2.283c0.221,0.955,0.332,2.138,0.332,3.55v13.824H139.791z"/>
	<path fill="#009444" d="M161.048,17.416h4.941v18.849c0,3.764-0.769,6.491-2.304,8.179c-1.537,1.688-3.661,2.532-6.374,2.532
		c-3.184,0-5.516-0.823-6.996-2.47c-1.48-1.646-2.221-4.158-2.221-7.536V17.416h5.231v18.641c0,2.27,0.303,3.854,0.913,4.753
		c0.608,0.9,1.619,1.35,3.03,1.35c1.356,0,2.326-0.478,2.906-1.432c0.582-0.955,0.872-2.512,0.872-4.671L161.048,17.416
		L161.048,17.416z"/>
	<path fill="#009444" d="M169.518,25.718h3.696l0.498,2.367h0.125c0.637-0.996,1.349-1.723,2.137-2.18
		c0.789-0.457,1.765-0.686,2.927-0.686c2.104,0,3.689,0.796,4.755,2.387c1.065,1.592,1.598,4.243,1.598,7.951
		c0,3.71-0.665,6.554-1.993,8.532c-1.329,1.98-3.253,2.969-5.771,2.969c-0.663,0-1.231-0.056-1.702-0.167
		c-0.471-0.111-0.913-0.291-1.328-0.54v8.428h-4.941L169.518,25.718L169.518,25.718z M174.458,41.827
		c0.277,0.277,0.588,0.485,0.934,0.623c0.347,0.14,0.795,0.208,1.35,0.208c1.107,0,1.951-0.546,2.533-1.64
		c0.581-1.093,0.871-2.954,0.871-5.584c0-1.965-0.221-3.425-0.663-4.38c-0.443-0.955-1.177-1.432-2.201-1.432
		c-1.384,0-2.325,0.816-2.823,2.449L174.458,41.827L174.458,41.827z"/>
	<g>
		<polygon fill="#009444" points="189.737,31.074 190.732,37.842 193.847,37.842 194.844,31.074 194.844,23.167 198.119,23.167 
			192.269,13.036 186.419,23.167 189.737,23.167 		"/>
		<path fill="#009444" d="M192.228,40.665c-0.887,0-1.599,0.264-2.139,0.789c-0.54,0.526-0.81,1.302-0.81,2.326
			c0,0.996,0.263,1.771,0.789,2.324c0.526,0.554,1.246,0.831,2.16,0.831c0.941,0,1.681-0.277,2.221-0.831
			c0.54-0.553,0.809-1.328,0.809-2.324c0-1.024-0.262-1.799-0.789-2.326C193.943,40.929,193.196,40.665,192.228,40.665z"/>
	</g>
	<g>
		<path fill="#8DC63F" d="M47.799,20.08c-0.795,0.151-1.303,0.532-1.791,0.875c-0.889,0.626-1.427,0.56-1.973-0.467
			c-0.833-1.566-1.831-3.046-2.743-4.572c-0.46-0.77-1.111-1.132-2.01-1.124c-2.048,0.017-4.097,0.009-6.146,0.005
			c-0.843,0-1.485,0.335-1.926,1.066c-1.297,2.151-2.585,4.309-3.916,6.439c-0.386,0.619-0.258,0.941,0.353,1.267
			c1.056,0.564,2.105,1.149,3.108,1.803c0.706,0.46,1.048,0.266,1.438-0.406c1.144-1.972,2.363-3.9,3.524-5.862
			c0.406-0.686,0.698-0.707,1.108-0.007c0.899,1.534,1.817,3.057,2.766,4.56c0.37,0.585,0.196,0.892-0.35,1.185
			c-0.703,0.378-1.377,0.807-2.32,1.366c2.993,1.021,5.716,1.952,8.439,2.882c0.534,0.183,0.693-0.146,0.776-0.568
			C46.683,25.762,47.225,23,47.799,20.08z M29.786,35.471c-0.616-3.141-1.176-5.94-1.706-8.744
			c-0.146-0.774-0.576-0.649-1.104-0.467c-2.449,0.844-4.905,1.67-7.353,2.518c-0.22,0.077-0.571,0.061-0.561,0.532
			c0.699,0.408,1.415,0.866,2.165,1.255c0.641,0.333,0.683,0.698,0.31,1.286c-0.89,1.404-1.728,2.841-2.592,4.263
			c-0.434,0.712-0.553,1.457-0.127,2.199c1.33,2.312,2.679,4.615,4.025,6.918c0.404,0.693,1.017,1.033,1.822,1.033
			c2.282-0.002,4.564-0.021,6.846,0.013c0.781,0.012,1.011-0.317,0.985-1.042c-0.037-1.082-0.058-2.168,0.006-3.248
			c0.055-0.92-0.284-1.212-1.197-1.193c-2.513,0.05-5.028,0.006-7.542,0.022c-0.78,0.005-1.125-0.147-0.611-0.971
			c1.106-1.771,2.184-3.561,3.246-5.358c0.304-0.513,0.606-0.608,1.118-0.287C28.163,34.604,28.847,34.949,29.786,35.471z
			 M41.451,49.598c0.105-0.035,0.21-0.071,0.315-0.107c0-0.721,0.033-1.445-0.009-2.164c-0.047-0.815,0.308-1.09,1.096-1.071
			c1.546,0.037,3.095-0.026,4.64,0.02c1.089,0.033,1.831-0.39,2.365-1.334c1.219-2.152,2.476-4.284,3.728-6.419
			c0.476-0.812,0.479-1.601-0.012-2.407c-1.188-1.948-2.387-3.889-3.539-5.858c-0.368-0.629-0.721-0.658-1.296-0.301
			c-0.984,0.612-1.976,1.228-3.018,1.73c-0.885,0.427-0.831,0.865-0.366,1.6c1.362,2.158,2.645,4.365,3.988,6.534
			c0.475,0.765,0.278,1.003-0.573,0.993c-1.972-0.023-3.945-0.041-5.916,0.006c-0.9,0.021-1.123-0.38-1.105-1.188
			c0.015-0.697,0.147-1.424-0.194-2.264c-2.248,1.968-4.394,3.85-6.543,5.728c-0.334,0.292-0.348,0.568-0.007,0.864
			C37.157,45.837,39.303,47.719,41.451,49.598z"/>
		<path fill="#8DC63F" d="M47.799,20.08c-0.574,2.919-1.117,5.682-1.662,8.445c-0.083,0.421-0.242,0.75-0.776,0.567
			c-2.723-0.931-5.447-1.86-8.439-2.882c0.942-0.559,1.617-0.987,2.32-1.366c0.545-0.294,0.72-0.6,0.35-1.185
			c-0.948-1.503-1.867-3.026-2.766-4.56c-0.41-0.699-0.703-0.679-1.108,0.007c-1.161,1.962-2.38,3.891-3.524,5.862
			c-0.39,0.671-0.732,0.866-1.438,0.406c-1.002-0.653-2.052-1.239-3.108-1.803c-0.61-0.326-0.738-0.648-0.353-1.267
			c1.33-2.131,2.619-4.288,3.916-6.439c0.44-0.73,1.083-1.067,1.926-1.066c2.049,0.003,4.097,0.011,6.146-0.006
			c0.899-0.008,1.55,0.354,2.01,1.124c0.912,1.526,1.91,3.005,2.743,4.572c0.546,1.027,1.084,1.094,1.973,0.467
			C46.496,20.612,47.004,20.231,47.799,20.08z"/>
		<path fill="#8DC63F" d="M29.786,35.471c-0.939-0.522-1.623-0.868-2.269-1.274c-0.511-0.321-0.814-0.226-1.118,0.288
			c-1.062,1.797-2.14,3.587-3.246,5.358c-0.514,0.823-0.169,0.975,0.611,0.97c2.514-0.016,5.029,0.029,7.542-0.021
			c0.913-0.019,1.251,0.273,1.197,1.193c-0.064,1.079-0.042,2.166-0.005,3.248c0.024,0.725-0.205,1.054-0.986,1.042
			c-2.282-0.035-4.564-0.016-6.846-0.014c-0.806,0.001-1.417-0.339-1.822-1.032c-1.346-2.302-2.696-4.605-4.025-6.918
			c-0.426-0.742-0.307-1.485,0.127-2.199c0.863-1.421,1.702-2.858,2.592-4.262c0.373-0.588,0.331-0.953-0.31-1.286
			c-0.75-0.389-1.465-0.846-2.165-1.255c-0.01-0.47,0.341-0.456,0.561-0.531c2.448-0.848,4.904-1.673,7.353-2.518
			c0.528-0.182,0.958-0.308,1.104,0.467C28.609,29.531,29.17,32.33,29.786,35.471z"/>
		<path fill="#8DC63F" d="M41.451,49.598c-2.148-1.879-4.295-3.76-6.445-5.638c-0.341-0.296-0.328-0.572,0.007-0.864
			c2.149-1.878,4.295-3.759,6.543-5.728c0.341,0.839,0.209,1.567,0.194,2.264c-0.017,0.808,0.205,1.21,1.105,1.188
			c1.971-0.046,3.944-0.03,5.916-0.006c0.852,0.011,1.048-0.227,0.573-0.993c-1.344-2.169-2.626-4.376-3.988-6.534
			c-0.464-0.735-0.519-1.173,0.366-1.6c1.042-0.502,2.033-1.118,3.018-1.73c0.575-0.357,0.929-0.329,1.296,0.301
			c1.151,1.969,2.35,3.91,3.539,5.858c0.491,0.805,0.489,1.595,0.012,2.407c-1.251,2.135-2.508,4.267-3.728,6.419
			c-0.535,0.944-1.276,1.367-2.365,1.334c-1.545-0.046-3.094,0.017-4.64-0.02c-0.788-0.019-1.143,0.255-1.096,1.071
			c0.042,0.719,0.009,1.442,0.009,2.164C41.662,49.526,41.557,49.562,41.451,49.598z"/>
	</g>
	<g>
		<path fill="#8DC63F" d="M206.492,43.106c0.445,0.306,1.075,0.594,1.885,0.864c0.811,0.271,1.732,0.405,2.768,0.405
			c1.314,0,2.383-0.323,3.207-0.97c0.823-0.646,1.233-1.662,1.233-3.049c0-0.916-0.234-1.714-0.704-2.396
			c-0.471-0.681-1.058-1.31-1.763-1.886c-0.704-0.575-1.462-1.14-2.273-1.692c-0.81-0.551-1.568-1.163-2.273-1.833
			c-0.704-0.669-1.292-1.439-1.762-2.308c-0.47-0.869-0.705-1.915-0.705-3.137c0-1.974,0.593-3.437,1.781-4.388
			c1.185-0.952,2.731-1.428,4.634-1.428c1.175,0,2.222,0.105,3.138,0.317c0.916,0.211,1.657,0.482,2.221,0.811l-0.846,2.326
			c-0.423-0.258-1.029-0.493-1.815-0.705c-0.788-0.211-1.699-0.317-2.732-0.317c-1.27,0-2.209,0.312-2.82,0.934
			c-0.611,0.623-0.916,1.404-0.916,2.344c0,0.823,0.235,1.551,0.704,2.186c0.47,0.634,1.058,1.233,1.763,1.797
			c0.705,0.564,1.463,1.134,2.273,1.709c0.811,0.577,1.569,1.217,2.273,1.921c0.704,0.705,1.292,1.504,1.762,2.397
			c0.471,0.893,0.705,1.951,0.705,3.172c0,2.067-0.612,3.689-1.833,4.864c-1.222,1.175-2.949,1.762-5.182,1.762
			c-1.409,0-2.567-0.129-3.471-0.387c-0.906-0.258-1.627-0.552-2.168-0.882L206.492,43.106z"/>
		<path fill="#8DC63F" d="M232.117,45.186c-0.565,0.518-1.282,0.917-2.15,1.199c-0.87,0.281-1.786,0.423-2.749,0.423
			c-1.105,0-2.062-0.218-2.874-0.652c-0.81-0.435-1.48-1.057-2.009-1.868c-0.528-0.811-0.916-1.78-1.163-2.908
			c-0.246-1.128-0.369-2.397-0.369-3.806c0-3.008,0.551-5.299,1.656-6.873c1.104-1.575,2.667-2.361,4.688-2.361
			c0.658,0,1.31,0.083,1.957,0.247c0.646,0.165,1.227,0.493,1.744,0.987c0.517,0.493,0.935,1.186,1.251,2.079
			c0.318,0.894,0.476,2.057,0.476,3.489c0,0.4-0.017,0.829-0.053,1.287s-0.077,0.934-0.124,1.427h-8.952
			c0,1.01,0.081,1.926,0.246,2.749c0.165,0.824,0.423,1.521,0.775,2.098c0.352,0.576,0.805,1.022,1.356,1.339
			c0.552,0.317,1.24,0.477,2.062,0.477c0.635,0,1.263-0.118,1.887-0.353c0.621-0.235,1.097-0.517,1.427-0.846L232.117,45.186z
			 M230.142,35.74c0.047-1.762-0.2-3.054-0.74-3.877c-0.541-0.822-1.281-1.233-2.221-1.233c-1.081,0-1.939,0.411-2.573,1.233
			c-0.635,0.823-1.01,2.115-1.129,3.877H230.142z"/>
		<path fill="#8DC63F" d="M235.958,29.818c0.682-0.423,1.51-0.751,2.486-0.987c0.975-0.234,2.003-0.353,3.084-0.353
			c0.987,0,1.779,0.147,2.379,0.441c0.599,0.294,1.069,0.693,1.409,1.198c0.341,0.506,0.564,1.081,0.67,1.728
			c0.106,0.647,0.159,1.321,0.159,2.026c0,1.41-0.03,2.785-0.091,4.124s-0.09,2.608-0.09,3.807c0,0.894,0.029,1.721,0.09,2.485
			c0.061,0.763,0.173,1.486,0.337,2.167h-1.987l-0.616-2.079h-0.139c-0.35,0.611-0.863,1.14-1.54,1.586
			c-0.677,0.446-1.586,0.669-2.729,0.669c-1.26,0-2.292-0.44-3.097-1.321c-0.804-0.881-1.207-2.098-1.207-3.649
			c0-1.009,0.169-1.856,0.507-2.537c0.337-0.681,0.815-1.233,1.433-1.656c0.618-0.423,1.352-0.723,2.202-0.899
			c0.851-0.176,1.801-0.265,2.85-0.265c0.234,0,0.466,0,0.699,0s0.478,0.012,0.734,0.035c0.069-0.728,0.105-1.375,0.105-1.938
			c0-1.339-0.198-2.279-0.593-2.82c-0.396-0.541-1.118-0.811-2.166-0.811c-0.652,0-1.361,0.101-2.13,0.3
			c-0.769,0.2-1.409,0.453-1.921,0.758L235.958,29.818z M243.536,38.348c-0.231-0.023-0.463-0.041-0.696-0.053
			c-0.233-0.011-0.464-0.018-0.697-0.018c-0.556,0-1.102,0.047-1.637,0.142c-0.535,0.095-1.01,0.259-1.427,0.494
			c-0.418,0.234-0.75,0.552-0.993,0.951c-0.244,0.399-0.366,0.905-0.366,1.516c0,0.94,0.226,1.668,0.679,2.186
			c0.453,0.517,1.039,0.775,1.757,0.775c0.976,0,1.73-0.234,2.265-0.704c0.534-0.47,0.906-0.987,1.114-1.551L243.536,38.348
			L243.536,38.348z"/>
		<path fill="#8DC63F" d="M248.47,28.761h2.15v-3.489l2.538-0.811v4.3h3.806v2.291h-3.806v10.503c0,1.035,0.123,1.78,0.369,2.238
			c0.247,0.458,0.652,0.688,1.216,0.688c0.47,0,0.875-0.053,1.216-0.159s0.71-0.241,1.111-0.405l0.494,2.009
			c-0.518,0.258-1.088,0.463-1.71,0.616c-0.623,0.153-1.275,0.229-1.957,0.229c-1.175,0-2.015-0.383-2.52-1.146
			c-0.505-0.764-0.757-2.003-0.757-3.719V31.052h-2.15V28.761L248.47,28.761z"/>
		<path fill="#8DC63F" d="M258.163,28.761h2.15v-3.489l2.537-0.811v4.3h3.806v2.291h-3.806v10.503c0,1.035,0.123,1.78,0.37,2.238
			c0.246,0.458,0.652,0.688,1.215,0.688c0.47,0,0.875-0.053,1.217-0.159c0.341-0.105,0.709-0.241,1.11-0.405l0.494,2.009
			c-0.518,0.258-1.087,0.463-1.71,0.616s-1.274,0.229-1.957,0.229c-1.175,0-2.015-0.383-2.52-1.146
			c-0.505-0.764-0.757-2.003-0.757-3.719V31.052h-2.151v-2.291H258.163z"/>
		<path fill="#8DC63F" d="M272.332,42.19c0,0.822,0.109,1.41,0.334,1.762c0.225,0.353,0.534,0.529,0.936,0.529
			c0.492,0,1.068-0.129,1.727-0.387l0.247,2.044c-0.306,0.188-0.734,0.34-1.286,0.458c-0.553,0.117-1.053,0.176-1.498,0.176
			c-0.895,0-1.615-0.276-2.168-0.828c-0.553-0.552-0.827-1.521-0.827-2.908V21.712h2.537L272.332,42.19L272.332,42.19z"/>
		<path fill="#8DC63F" d="M288.368,45.186c-0.563,0.518-1.281,0.917-2.149,1.199c-0.869,0.281-1.787,0.423-2.75,0.423
			c-1.104,0-2.062-0.218-2.871-0.652c-0.812-0.435-1.481-1.057-2.011-1.868c-0.528-0.811-0.917-1.78-1.163-2.908
			c-0.247-1.128-0.369-2.397-0.369-3.806c0-3.008,0.551-5.299,1.656-6.873c1.104-1.575,2.666-2.361,4.688-2.361
			c0.658,0,1.31,0.083,1.957,0.247c0.646,0.165,1.227,0.493,1.744,0.987c0.517,0.493,0.935,1.186,1.252,2.079
			c0.315,0.894,0.476,2.057,0.476,3.489c0,0.4-0.019,0.829-0.054,1.287c-0.034,0.458-0.076,0.934-0.123,1.427h-8.952
			c0,1.01,0.081,1.926,0.245,2.749c0.164,0.824,0.424,1.521,0.775,2.098c0.354,0.576,0.805,1.022,1.357,1.339
			c0.551,0.317,1.238,0.477,2.062,0.477c0.635,0,1.264-0.118,1.885-0.353c0.623-0.235,1.1-0.517,1.429-0.846L288.368,45.186z
			 M286.395,35.74c0.045-1.762-0.201-3.054-0.74-3.877c-0.541-0.822-1.281-1.233-2.221-1.233c-1.082,0-1.938,0.411-2.574,1.233
			c-0.633,0.823-1.01,2.115-1.127,3.877H286.395z"/>
	</g>
</g>
</svg>
