<?xml version="1.0" encoding="utf-8"?>
<!-- Generator: Adobe Illustrator 16.0.0, SVG Export Plug-In . SVG Version: 6.00 Build 0)  -->
<!DOCTYPE svg PUBLIC "-//W3C//DTD SVG 1.1//EN" "http://www.w3.org/Graphics/SVG/1.1/DTD/svg11.dtd">
<svg version="1.1" id="Layer_1" xmlns="http://www.w3.org/2000/svg" xmlns:xlink="http://www.w3.org/1999/xlink" x="0px" y="0px"
	 width="273.333px" height="42.213px" viewBox="-1.696 0 273.333 42.213" enable-background="new -1.696 0 273.333 42.213"
	 xml:space="preserve">
<g>
	<path fill="#009444" d="M51.283,18.883h8.97v12.872c-1.024,0.969-2.223,1.666-3.593,2.096c-1.37,0.428-2.731,0.645-4.089,0.645
		c-1.633,0-3.114-0.291-4.44-0.873c-1.328-0.58-2.457-1.486-3.386-2.721c-0.928-1.229-1.646-2.795-2.157-4.691
		c-0.515-1.895-0.77-4.172-0.77-6.828c0-2.769,0.304-5.107,0.913-7.017c0.609-1.91,1.418-3.468,2.429-4.672
		c1.012-1.204,2.188-2.076,3.529-2.616s2.761-0.81,4.256-0.81c1.329,0,2.539,0.118,3.633,0.353c1.095,0.235,1.999,0.506,2.721,0.81
		l-1.08,4.524c-0.556-0.248-1.197-0.457-1.932-0.623c-0.733-0.166-1.626-0.248-2.678-0.248c-0.969,0-1.847,0.192-2.636,0.58
		c-0.789,0.389-1.453,0.998-1.993,1.828c-0.539,0.83-0.955,1.901-1.245,3.217c-0.291,1.314-0.436,2.886-0.436,4.713
		c0,3.514,0.53,6.102,1.599,7.764c1.065,1.66,2.47,2.49,4.214,2.49c0.553,0,1.085-0.082,1.6-0.25
		c0.512-0.168,0.962-0.434,1.35-0.799v-6.006l-4.774-0.65L51.283,18.883L51.283,18.883z"/>
	<path fill="#009444" d="M73.038,18.053c-0.665-0.249-1.271-0.374-1.825-0.374c-0.747,0-1.393,0.208-1.932,0.623
		c-0.54,0.416-0.907,0.997-1.101,1.743v13.868h-4.94V13.152h3.778l0.581,2.492h0.166c0.357-0.914,0.878-1.625,1.557-2.138
		c0.677-0.514,1.459-0.77,2.348-0.77c0.663,0,1.312,0.139,1.95,0.415L73.038,18.053z"/>
	<path fill="#009444" d="M89.438,32.376c-0.692,0.607-1.633,1.105-2.823,1.496c-1.188,0.387-2.436,0.58-3.734,0.58
		c-1.439,0-2.68-0.248-3.718-0.748c-1.038-0.498-1.889-1.219-2.553-2.158c-0.664-0.941-1.156-2.084-1.474-3.426
		c-0.319-1.344-0.479-2.871-0.479-4.586c0-3.739,0.74-6.499,2.224-8.284c1.479-1.785,3.533-2.678,6.165-2.678
		c0.885,0,1.742,0.131,2.572,0.395c0.831,0.263,1.571,0.705,2.223,1.328c0.648,0.623,1.177,1.453,1.578,2.492
		c0.398,1.037,0.602,2.346,0.602,3.922c0,0.61-0.035,1.26-0.104,1.954c-0.067,0.689-0.173,1.438-0.312,2.24H79.515
		c0.056,1.717,0.415,3.031,1.08,3.943c0.664,0.914,1.729,1.371,3.197,1.371c0.886,0,1.693-0.141,2.429-0.416
		c0.731-0.277,1.294-0.566,1.681-0.871L89.438,32.376z M82.962,16.807c-1.054,0-1.843,0.422-2.367,1.266
		c-0.526,0.846-0.831,2.028-0.914,3.551h5.729c0.083-1.579-0.083-2.774-0.499-3.592C84.497,17.216,83.846,16.807,82.962,16.807z"/>
	<path fill="#009444" d="M107.207,32.376c-0.69,0.607-1.634,1.105-2.821,1.496c-1.19,0.387-2.438,0.58-3.736,0.58
		c-1.439,0-2.678-0.248-3.716-0.748c-1.039-0.498-1.889-1.219-2.553-2.158c-0.664-0.941-1.156-2.084-1.476-3.426
		c-0.316-1.344-0.478-2.871-0.478-4.586c0-3.739,0.74-6.499,2.221-8.284c1.481-1.785,3.535-2.678,6.166-2.678
		c0.886,0,1.744,0.131,2.574,0.395c0.831,0.263,1.571,0.705,2.222,1.328c0.651,0.623,1.175,1.453,1.578,2.492
		c0.401,1.037,0.602,2.346,0.602,3.922c0,0.61-0.033,1.26-0.104,1.954c-0.07,0.689-0.173,1.438-0.312,2.24H97.285
		c0.058,1.717,0.415,3.031,1.08,3.943c0.665,0.914,1.729,1.371,3.197,1.371c0.885,0,1.695-0.141,2.428-0.416
		c0.733-0.277,1.294-0.566,1.684-0.871L107.207,32.376z M100.73,16.807c-1.053,0-1.842,0.422-2.366,1.266
		c-0.524,0.846-0.831,2.028-0.914,3.551h5.729c0.083-1.579-0.083-2.774-0.499-3.592C102.267,17.216,101.615,16.807,100.73,16.807z"
		/>
	<path fill="#009444" d="M121.239,33.913V21.292c0-1.522-0.18-2.588-0.54-3.198c-0.357-0.608-0.969-0.914-1.827-0.914
		c-0.72,0-1.342,0.222-1.866,0.665c-0.526,0.442-0.899,0.997-1.121,1.661v14.407h-4.941V13.152h3.944l0.581,2.408h0.125
		c0.499-0.803,1.176-1.485,2.035-2.056c0.855-0.566,1.979-0.852,3.361-0.852c0.83,0,1.57,0.125,2.224,0.374
		c0.647,0.25,1.194,0.658,1.64,1.226c0.442,0.568,0.774,1.328,0.997,2.283c0.221,0.955,0.332,2.14,0.332,3.551v13.825h-4.943V33.913
		z"/>
	<path fill="#009444" d="M142.496,4.851h4.941V23.7c0,3.764-0.769,6.49-2.304,8.18c-1.537,1.688-3.661,2.531-6.374,2.531
		c-3.186,0-5.518-0.822-6.996-2.471c-1.48-1.645-2.221-4.156-2.221-7.535V4.851h5.229v18.642c0,2.27,0.303,3.854,0.913,4.752
		c0.608,0.9,1.619,1.352,3.03,1.352c1.354,0,2.325-0.479,2.904-1.434c0.582-0.955,0.872-2.512,0.872-4.67L142.496,4.851
		L142.496,4.851z"/>
	<path fill="#009444" d="M150.967,13.153h3.694l0.498,2.367h0.125c0.639-0.996,1.351-1.723,2.139-2.18
		c0.789-0.457,1.765-0.688,2.927-0.688c2.104,0,3.688,0.797,4.755,2.389c1.065,1.592,1.598,4.242,1.598,7.952
		c0,3.709-0.665,6.553-1.991,8.529c-1.329,1.98-3.255,2.971-5.771,2.971c-0.663,0-1.23-0.057-1.702-0.166
		c-0.471-0.111-0.913-0.291-1.328-0.541v8.428h-4.939L150.967,13.153L150.967,13.153z M155.906,29.263
		c0.277,0.277,0.588,0.484,0.936,0.623c0.347,0.139,0.795,0.207,1.35,0.207c1.107,0,1.951-0.545,2.533-1.639
		c0.581-1.096,0.871-2.955,0.871-5.584c0-1.967-0.223-3.427-0.663-4.382c-0.443-0.954-1.177-1.432-2.201-1.432
		c-1.384,0-2.325,0.815-2.823,2.448L155.906,29.263L155.906,29.263z"/>
	<g>
		<polygon fill="#009444" points="171.185,18.509 172.18,25.276 175.296,25.276 176.292,18.509 176.292,10.602 179.567,10.602 
			173.718,0.471 167.867,10.602 171.185,10.602 		"/>
		<path fill="#009444" d="M173.677,28.101c-0.889,0-1.601,0.264-2.141,0.789s-0.81,1.301-0.81,2.326c0,0.996,0.263,1.77,0.789,2.324
			c0.524,0.553,1.246,0.83,2.16,0.83c0.939,0,1.681-0.277,2.221-0.83c0.54-0.555,0.809-1.328,0.809-2.324
			c0-1.025-0.262-1.799-0.789-2.326C175.391,28.364,174.644,28.101,173.677,28.101z"/>
	</g>
	<g>
		<path fill="#F2F2F2" d="M29.247,7.515c-0.795,0.151-1.303,0.532-1.791,0.875c-0.889,0.626-1.427,0.56-1.973-0.467
			c-0.833-1.566-1.831-3.046-2.743-4.572c-0.46-0.77-1.109-1.132-2.01-1.124c-2.048,0.017-4.097,0.009-6.146,0.005
			c-0.845,0-1.485,0.335-1.928,1.066c-1.297,2.151-2.585,4.309-3.916,6.439c-0.386,0.619-0.258,0.941,0.354,1.268
			c1.056,0.563,2.104,1.148,3.106,1.804c0.706,0.46,1.05,0.267,1.438-0.406c1.144-1.972,2.363-3.9,3.522-5.862
			c0.406-0.686,0.698-0.707,1.108-0.007c0.899,1.534,1.817,3.055,2.766,4.56c0.37,0.585,0.196,0.892-0.35,1.185
			c-0.703,0.379-1.377,0.809-2.32,1.366c2.993,1.021,5.718,1.952,8.439,2.882c0.534,0.184,0.692-0.146,0.775-0.566
			C28.132,13.198,28.674,10.435,29.247,7.515z M11.234,22.907c-0.616-3.142-1.176-5.94-1.706-8.745
			c-0.146-0.773-0.576-0.648-1.104-0.468c-2.449,0.845-4.905,1.671-7.354,2.519c-0.22,0.076-0.571,0.062-0.561,0.531
			C1.208,17.153,1.925,17.611,2.675,18c0.641,0.332,0.683,0.697,0.31,1.285c-0.89,1.404-1.728,2.842-2.592,4.264
			c-0.435,0.713-0.553,1.457-0.127,2.199c1.33,2.312,2.679,4.613,4.023,6.918C4.693,33.358,5.307,33.7,6.111,33.7
			c2.282-0.002,4.564-0.021,6.847,0.012c0.78,0.014,1.012-0.316,0.984-1.041c-0.037-1.082-0.058-2.168,0.006-3.248
			c0.057-0.92-0.284-1.213-1.195-1.193c-2.515,0.051-5.028,0.006-7.542,0.021c-0.78,0.006-1.125-0.146-0.611-0.971
			c1.104-1.771,2.184-3.561,3.246-5.357c0.304-0.514,0.604-0.607,1.118-0.287C9.611,22.04,10.296,22.384,11.234,22.907z
			 M22.899,37.034c0.105-0.035,0.21-0.072,0.315-0.107c0-0.721,0.031-1.445-0.011-2.164c-0.047-0.812,0.31-1.09,1.098-1.07
			c1.546,0.037,3.095-0.025,4.64,0.021c1.089,0.033,1.831-0.391,2.365-1.334c1.219-2.152,2.476-4.285,3.728-6.42
			c0.478-0.812,0.479-1.602-0.012-2.406c-1.188-1.949-2.387-3.889-3.539-5.859c-0.368-0.629-0.721-0.657-1.296-0.301
			c-0.984,0.612-1.976,1.228-3.018,1.729c-0.887,0.428-0.831,0.864-0.366,1.601c1.36,2.158,2.645,4.365,3.986,6.535
			c0.477,0.764,0.278,1.002-0.571,0.992c-1.974-0.023-3.945-0.041-5.916,0.006c-0.9,0.02-1.123-0.379-1.105-1.189
			c0.017-0.695,0.147-1.424-0.192-2.264c-2.248,1.969-4.396,3.85-6.543,5.73c-0.334,0.291-0.35,0.566-0.009,0.861
			C18.605,33.272,20.752,35.153,22.899,37.034z"/>
		<path fill="#F2F2F2" d="M29.247,7.515c-0.572,2.919-1.115,5.683-1.66,8.444c-0.083,0.422-0.242,0.75-0.776,0.566
			c-2.723-0.931-5.447-1.859-8.439-2.882c0.942-0.56,1.617-0.985,2.32-1.366c0.545-0.294,0.72-0.6,0.35-1.185
			c-0.946-1.503-1.865-3.026-2.766-4.56c-0.41-0.699-0.703-0.679-1.107,0.007c-1.16,1.962-2.381,3.891-3.523,5.862
			c-0.39,0.673-0.732,0.866-1.438,0.406c-1.002-0.651-2.052-1.239-3.106-1.804c-0.61-0.325-0.738-0.647-0.354-1.268
			c1.33-2.131,2.619-4.288,3.916-6.438c0.44-0.73,1.083-1.067,1.928-1.066c2.049,0.003,4.097,0.011,6.146-0.006
			c0.899-0.008,1.55,0.354,2.01,1.124c0.912,1.526,1.91,3.005,2.743,4.572c0.546,1.027,1.084,1.094,1.974,0.467
			C27.944,8.047,28.452,7.666,29.247,7.515z"/>
		<path fill="#F2F2F2" d="M11.234,22.907c-0.938-0.521-1.623-0.869-2.269-1.273c-0.513-0.322-0.814-0.227-1.118,0.287
			c-1.062,1.797-2.142,3.588-3.246,5.357c-0.514,0.822-0.169,0.975,0.611,0.971c2.514-0.018,5.027,0.027,7.542-0.021
			c0.913-0.02,1.251,0.273,1.195,1.193c-0.062,1.078-0.042,2.166-0.005,3.248c0.024,0.725-0.205,1.055-0.984,1.041
			c-2.282-0.033-4.564-0.016-6.848-0.014c-0.806,0.002-1.417-0.34-1.82-1.031c-1.348-2.303-2.696-4.605-4.025-6.918
			c-0.426-0.742-0.307-1.484,0.127-2.199c0.863-1.422,1.702-2.858,2.592-4.262c0.373-0.588,0.331-0.953-0.31-1.287
			c-0.75-0.389-1.465-0.846-2.165-1.254c-0.01-0.471,0.341-0.457,0.561-0.531c2.448-0.848,4.904-1.674,7.354-2.519
			c0.526-0.182,0.958-0.308,1.104,0.468C10.057,16.966,10.618,19.765,11.234,22.907z"/>
		<path fill="#F2F2F2" d="M22.899,37.034c-2.146-1.881-4.295-3.762-6.445-5.639c-0.341-0.297-0.326-0.572,0.009-0.863
			c2.147-1.879,4.295-3.76,6.543-5.729c0.341,0.838,0.209,1.566,0.192,2.264c-0.017,0.809,0.205,1.209,1.105,1.188
			c1.971-0.045,3.942-0.029,5.916-0.006c0.852,0.012,1.048-0.227,0.573-0.992c-1.346-2.17-2.628-4.377-3.988-6.534
			c-0.464-0.735-0.521-1.173,0.366-1.602c1.042-0.502,2.031-1.117,3.018-1.729c0.575-0.355,0.929-0.329,1.296,0.301
			c1.151,1.971,2.352,3.911,3.539,5.858c0.491,0.805,0.489,1.596,0.012,2.406c-1.251,2.137-2.508,4.268-3.728,6.42
			c-0.535,0.943-1.276,1.367-2.365,1.334c-1.545-0.047-3.094,0.018-4.64-0.021c-0.788-0.018-1.145,0.256-1.098,1.072
			c0.042,0.719,0.011,1.441,0.011,2.164C23.11,36.962,23.006,36.997,22.899,37.034z"/>
	</g>
	<g>
		<path fill="#F2F2F2" d="M187.94,30.542c0.445,0.305,1.075,0.594,1.885,0.861c0.812,0.271,1.732,0.406,2.77,0.406
			c1.312,0,2.383-0.324,3.207-0.971c0.821-0.646,1.231-1.662,1.231-3.049c0-0.916-0.232-1.715-0.704-2.396
			c-0.471-0.68-1.058-1.311-1.763-1.885c-0.704-0.576-1.462-1.141-2.271-1.693c-0.812-0.551-1.568-1.163-2.273-1.833
			c-0.704-0.669-1.292-1.438-1.762-2.308c-0.472-0.869-0.705-1.915-0.705-3.138c0-1.975,0.593-3.438,1.781-4.389
			c1.185-0.951,2.729-1.428,4.634-1.428c1.175,0,2.222,0.105,3.138,0.316s1.657,0.481,2.221,0.812l-0.846,2.326
			c-0.423-0.259-1.029-0.493-1.813-0.705c-0.788-0.211-1.699-0.317-2.732-0.317c-1.271,0-2.209,0.312-2.82,0.934
			c-0.609,0.623-0.916,1.404-0.916,2.346c0,0.822,0.235,1.551,0.704,2.188c0.47,0.633,1.06,1.231,1.764,1.797
			c0.704,0.562,1.464,1.134,2.272,1.709c0.812,0.576,1.569,1.217,2.273,1.92c0.702,0.705,1.292,1.504,1.762,2.396
			c0.471,0.895,0.705,1.951,0.705,3.174c0,2.064-0.612,3.688-1.833,4.861c-1.224,1.176-2.949,1.764-5.184,1.764
			c-1.407,0-2.565-0.131-3.471-0.389c-0.906-0.258-1.627-0.551-2.168-0.881L187.94,30.542z"/>
		<path fill="#F2F2F2" d="M213.565,32.622c-0.565,0.518-1.282,0.916-2.15,1.197s-1.784,0.424-2.749,0.424
			c-1.104,0-2.062-0.219-2.872-0.65c-0.812-0.436-1.48-1.059-2.011-1.869c-0.526-0.811-0.916-1.779-1.163-2.908
			c-0.246-1.127-0.367-2.395-0.367-3.805c0-3.01,0.551-5.301,1.654-6.874c1.104-1.575,2.667-2.361,4.688-2.361
			c0.658,0,1.31,0.083,1.957,0.247c0.646,0.165,1.227,0.493,1.744,0.987c0.517,0.492,0.935,1.186,1.251,2.078
			c0.316,0.895,0.476,2.057,0.476,3.489c0,0.4-0.017,0.83-0.053,1.287c-0.036,0.459-0.077,0.934-0.124,1.428h-8.952
			c0,1.01,0.081,1.926,0.246,2.748c0.165,0.824,0.423,1.521,0.775,2.1c0.352,0.574,0.805,1.021,1.354,1.338
			c0.552,0.316,1.24,0.479,2.062,0.479c0.635,0,1.263-0.117,1.887-0.354c0.621-0.234,1.097-0.518,1.427-0.848L213.565,32.622z
			 M211.591,23.175c0.047-1.762-0.2-3.053-0.74-3.877c-0.541-0.821-1.281-1.232-2.221-1.232c-1.081,0-1.939,0.411-2.573,1.232
			c-0.635,0.824-1.01,2.116-1.129,3.877H211.591z"/>
		<path fill="#F2F2F2" d="M217.406,17.252c0.684-0.422,1.51-0.75,2.486-0.986c0.975-0.234,2.003-0.354,3.084-0.354
			c0.987,0,1.779,0.146,2.379,0.44c0.599,0.294,1.069,0.692,1.409,1.198c0.341,0.506,0.562,1.081,0.67,1.728
			c0.104,0.647,0.159,1.321,0.159,2.027c0,1.41-0.03,2.785-0.091,4.123c-0.062,1.34-0.092,2.607-0.092,3.807
			c0,0.896,0.029,1.723,0.092,2.486c0.061,0.762,0.173,1.484,0.337,2.166h-1.987l-0.616-2.078h-0.139
			c-0.352,0.609-0.863,1.141-1.54,1.586s-1.586,0.668-2.729,0.668c-1.26,0-2.292-0.438-3.097-1.318
			c-0.804-0.883-1.207-2.1-1.207-3.65c0-1.008,0.169-1.855,0.507-2.537c0.337-0.68,0.815-1.232,1.435-1.656
			c0.616-0.422,1.352-0.723,2.2-0.898c0.853-0.176,1.803-0.266,2.852-0.266c0.232,0,0.466,0,0.699,0
			c0.231,0,0.478,0.014,0.732,0.035c0.069-0.727,0.105-1.375,0.105-1.938c0-1.338-0.198-2.278-0.593-2.819
			c-0.396-0.541-1.118-0.812-2.166-0.812c-0.652,0-1.361,0.103-2.132,0.301c-0.769,0.199-1.407,0.453-1.921,0.759L217.406,17.252z
			 M224.984,25.784c-0.229-0.023-0.463-0.041-0.696-0.055c-0.231-0.01-0.464-0.018-0.695-0.018c-0.558,0-1.104,0.047-1.639,0.143
			c-0.533,0.096-1.01,0.258-1.427,0.494c-0.418,0.234-0.75,0.551-0.993,0.951c-0.244,0.398-0.364,0.904-0.364,1.516
			c0,0.939,0.226,1.668,0.679,2.186s1.039,0.775,1.757,0.775c0.976,0,1.73-0.234,2.265-0.703c0.534-0.471,0.906-0.988,1.114-1.553
			V25.784L224.984,25.784z"/>
		<path fill="#F2F2F2" d="M229.919,16.196h2.148v-3.488l2.538-0.812v4.3h3.806v2.291h-3.806v10.504c0,1.033,0.123,1.779,0.369,2.236
			c0.247,0.459,0.652,0.689,1.216,0.689c0.47,0,0.875-0.055,1.216-0.16s0.71-0.24,1.111-0.404l0.494,2.008
			c-0.52,0.26-1.088,0.465-1.71,0.617c-0.623,0.152-1.275,0.229-1.957,0.229c-1.175,0-2.017-0.383-2.521-1.146
			s-0.757-2.002-0.757-3.719V18.487h-2.148L229.919,16.196L229.919,16.196z"/>
		<path fill="#F2F2F2" d="M239.611,16.196h2.15v-3.488l2.537-0.812v4.3h3.806v2.291h-3.806v10.504c0,1.033,0.123,1.779,0.368,2.236
			c0.246,0.459,0.652,0.689,1.217,0.689c0.47,0,0.875-0.055,1.217-0.16c0.341-0.105,0.709-0.24,1.108-0.404l0.494,2.008
			c-0.518,0.26-1.087,0.465-1.71,0.617s-1.272,0.229-1.957,0.229c-1.175,0-2.015-0.383-2.52-1.146s-0.757-2.002-0.757-3.719V18.487
			h-2.151v-2.291H239.611z"/>
		<path fill="#F2F2F2" d="M253.78,29.626c0,0.822,0.109,1.41,0.334,1.762c0.227,0.354,0.534,0.529,0.938,0.529
			c0.492,0,1.066-0.129,1.727-0.389l0.247,2.045c-0.306,0.188-0.734,0.34-1.286,0.459c-0.553,0.115-1.053,0.176-1.498,0.176
			c-0.895,0-1.613-0.277-2.168-0.828c-0.553-0.553-0.827-1.521-0.827-2.908V9.147h2.537L253.78,29.626L253.78,29.626z"/>
		<path fill="#F2F2F2" d="M269.816,32.622c-0.562,0.518-1.281,0.916-2.147,1.197c-0.869,0.281-1.787,0.424-2.75,0.424
			c-1.104,0-2.062-0.219-2.871-0.65c-0.812-0.436-1.481-1.059-2.013-1.869c-0.526-0.811-0.917-1.779-1.163-2.908
			c-0.245-1.127-0.367-2.395-0.367-3.805c0-3.01,0.551-5.301,1.654-6.874c1.104-1.575,2.666-2.361,4.688-2.361
			c0.658,0,1.31,0.083,1.957,0.247c0.646,0.165,1.227,0.493,1.744,0.987c0.517,0.492,0.935,1.186,1.252,2.078
			c0.313,0.895,0.476,2.057,0.476,3.489c0,0.4-0.019,0.83-0.054,1.287c-0.034,0.459-0.076,0.934-0.123,1.428h-8.952
			c0,1.01,0.081,1.926,0.245,2.748c0.164,0.824,0.424,1.521,0.775,2.1c0.354,0.574,0.805,1.021,1.355,1.338s1.238,0.479,2.062,0.479
			c0.635,0,1.264-0.117,1.885-0.354c0.623-0.234,1.1-0.518,1.429-0.848L269.816,32.622z M267.844,23.175
			c0.045-1.762-0.201-3.053-0.74-3.877c-0.541-0.821-1.281-1.232-2.221-1.232c-1.082,0-1.938,0.411-2.574,1.232
			c-0.633,0.824-1.01,2.116-1.127,3.877H267.844z"/>
	</g>
</g>
</svg>
