<?xml version="1.0" encoding="utf-8"?>
<!-- Generator: Adobe Illustrator 16.0.0, SVG Export Plug-In . SVG Version: 6.00 Build 0)  -->
<!DOCTYPE svg PUBLIC "-//W3C//DTD SVG 1.1//EN" "http://www.w3.org/Graphics/SVG/1.1/DTD/svg11.dtd">
<svg version="1.1" id="Layer_1" xmlns="http://www.w3.org/2000/svg" xmlns:xlink="http://www.w3.org/1999/xlink" x="0px" y="0px"
	 width="550.789px" height="90.143px" viewBox="0 0 550.789 90.143" enable-background="new 0 0 550.789 90.143"
	 xml:space="preserve">
<path fill="#8CC63F" d="M548.048,86.198c-0.334,0.002-0.668,0-1.047,0c0-8.142,0-16.227,0-24.335c-2.488,0-4.932,0-7.42,0
	c0,2.47,0,4.926,0,7.431c-1.779,0-3.518,0-5.301,0c0,0.535,0,1.02,0,1.558c-0.402,0.028-0.754,0.037-1.152-0.011
	c0-0.348,0-0.679,0-1c-0.346-0.096-4.279-0.114-4.791-0.025c0,0.24-0.016,0.488,0.004,0.737c0.02,0.273-0.061,0.475-0.283,0.652
	c-0.471,0.379-0.908,0.803-1.377,1.182c-0.242,0.196-0.338,0.401-0.334,0.717c0.02,1.185,0.008,2.365,0.008,3.549
	c0,0.149,0,0.305,0,0.509c-0.537,0-1.039,0-1.578,0c-0.055,1.042-0.02,2.034-0.025,3.027c-0.006,0.979,0,1.959-0.043,2.939
	c-0.115-0.4-0.064-0.812-0.072-1.217c-0.01-0.41-0.004-0.818-0.004-1.228c0-0.421,0-0.846,0-1.266c0-0.401,0-0.805,0-1.206
	c-0.031-0.008-0.066-0.016-0.1-0.025c-0.906,1.625-1.812,3.247-2.736,4.902c-0.129-0.157-0.084-0.312-0.084-0.452
	c-0.002-2.872-0.002-5.743-0.002-8.614c0-0.168,0-0.333,0-0.489c-0.348-0.09-5.402-0.104-5.887-0.019c0,4.203,0,8.415,0,12.628
	c-0.029,0.005-0.059,0.01-0.086,0.015c-0.023-0.066-0.059-0.133-0.064-0.199c-0.012-0.126-0.006-0.252-0.006-0.38
	c0-4.941,0-9.882,0-14.821c0-0.167,0-0.333,0-0.537c-0.48,0-0.924,0-1.424,0c-0.045-0.688,0.002-1.346-0.031-2.051
	c-0.906-0.029-1.801,0.006-2.744-0.021c0-0.387,0-0.744,0-1.144c-1.271,0-2.488,0-3.758,0c0-1.568,0-3.093,0-4.579
	c-0.064-0.044-0.078-0.061-0.088-0.06c-0.521,0.059-0.896-0.225-1.277-0.521c-0.521-0.408-1.062-0.789-1.588-1.191
	c-0.174-0.137-0.354-0.202-0.578-0.202c-1.311,0.01-2.617,0.01-3.928,0c-0.225,0-0.402,0.062-0.574,0.207
	c-0.541,0.45-1.104,0.874-1.629,1.343c-0.32,0.285-0.652,0.423-1.074,0.313c-0.006-0.004-0.018-0.014-0.025-0.022
	c-0.01-0.011-0.021-0.021-0.023-0.033c-0.01-0.026-0.016-0.055-0.018-0.083s-0.004-0.057-0.004-0.085
	c-0.006-3.281-0.01-6.559-0.016-9.838c0-0.013-0.008-0.027-0.025-0.074c-0.145-0.02-0.305-0.04-0.512-0.07c0-0.776,0-1.56,0-2.396
	c-0.863-0.028-1.688,0.004-2.553-0.021c0-0.771,0-1.509,0-2.273c-1.162,0-2.281,0-3.443,0c0,0.761,0,1.5,0,2.28
	c-0.605,0-1.162,0-1.766,0c0,0.825,0,1.605,0,2.404c-0.162,0.029-0.283,0.049-0.438,0.078c0,5.261,0,10.521,0,15.77
	c-0.324,0.098-1.979,0.118-2.539,0.035c0-3.701,0-7.413,0-11.172c-0.936,0-1.828,0-2.773,0c-0.033-0.53-0.012-1.017-0.016-1.504
	c-0.006-0.489,0-0.983,0-1.479c0-0.493,0-0.984,0-1.477s0-0.983,0-1.505c-0.178-0.022-0.324-0.044-0.523-0.073
	c0-0.277,0-0.562,0-0.878c-0.229,0-0.402,0-0.617,0c-0.016,0.285-0.031,0.572-0.049,0.884c-1.367,0-2.709,0-4.104,0
	c0-3.355,0-6.698,0-10.086c-0.207-0.009-0.369-0.021-0.533-0.021c-0.424-0.003-0.846-0.011-1.266,0.002
	c-0.223,0.008-0.363-0.07-0.496-0.243c-0.828-1.066-1.67-2.125-2.506-3.188c-0.07-0.087-0.127-0.192-0.213-0.259
	c-0.172-0.139-0.217-0.309-0.201-0.518c0.016-0.164,0.002-0.33,0.002-0.522c-0.312,0-0.584,0-0.883,0
	c-0.01,0.14-0.035,0.265-0.02,0.383c0.053,0.393-0.102,0.693-0.336,0.998c-0.773,1.006-1.529,2.022-2.271,3.048
	c-0.172,0.234-0.355,0.312-0.635,0.304c-0.518-0.016-1.035-0.004-1.611-0.004c0,3.703,0,7.365,0,11.037
	c-0.219,0.034-0.379,0.058-0.57,0.086c0,6.292,0,12.564,0,18.871c-0.361,0-0.691,0-1.031,0c-0.002-0.001-0.012-0.009-0.023-0.021
	c-0.01-0.01-0.02-0.02-0.021-0.031c-0.008-0.027-0.016-0.057-0.02-0.082c-0.004-0.029-0.004-0.058-0.004-0.083
	c-0.004-3.815-0.01-7.63-0.018-11.443c0-0.014-0.008-0.028-0.029-0.1c-0.379,0-0.777,0-1.207,0c0-3.852,0-7.647,0-11.431
	c-0.326-0.105-10.518-0.146-11.373-0.052c-0.035,0.478-0.012,0.964-0.016,1.452c-0.004,0.493-0.002,0.984-0.002,1.477
	c0,0.493,0,0.985,0,1.479c0,0.493,0,0.985,0,1.478s0,0.984,0,1.53c-0.914,0.029-1.809-0.004-2.75,0.021c0,1.756,0,3.479,0,5.229
	c-0.936,0-1.818,0-2.693,0c-0.016-0.021-0.023-0.029-0.033-0.04c-0.008-0.013-0.021-0.021-0.021-0.035
	c-0.008-0.025-0.012-0.055-0.012-0.082c-0.004-0.044-0.004-0.086-0.004-0.126c-0.004-9.812-0.004-19.625-0.006-29.434
	c0-0.016-0.006-0.029-0.008-0.043c-0.004-0.012-0.008-0.025-0.029-0.084c-0.268-0.017-0.555-0.032-0.885-0.052
	c0-0.331,0-0.648,0-1.011c-0.541,0-1.041,0-1.594,0c0-0.326,0-0.611,0-0.927c-0.217,0-0.377,0-0.574,0
	c-0.016,0.285-0.029,0.574-0.045,0.896c-1.682,0-3.336,0-5.049,0c0,0.361,0,0.689,0,1.033c-0.264,0.021-0.471,0.036-0.738,0.06
	c-0.004,1.229,0,2.447,0,3.667c-0.002,1.224,0,2.449,0,3.674c0,1.221,0,2.44,0,3.713c-0.406,0-0.766,0-1.139,0
	c-0.021,0.271-0.035,0.493-0.059,0.757c-0.346,0-0.676,0-1.055,0c0,4.271,0,8.502,0,12.782c-0.291,0-0.537,0-0.832,0
	c0,0.463,0,0.877,0,1.32c-0.789,0-1.523,0-2.295,0c-0.041-0.369-0.082-0.73-0.119-1.089l-5.398-6.667c-0.4,0-0.758,0-1.139,0
	c-0.018-0.186-0.031-0.364-0.049-0.566c-0.104-0.038-0.217-0.079-0.334-0.121c0-1.753,0-3.508,0-5.277
	c0.188-0.016,0.352-0.029,0.543-0.046c0-0.172,0-0.333,0-0.521c-4.293,0-8.582,0-12.896,0c0,0.172,0,0.332,0,0.513
	c0.146,0.021,0.279,0.039,0.436,0.063c0,2.542,0,5.068,0,7.646c-0.684,0-1.352,0-2.064,0c0,3.507,0,6.962,0,10.457
	c-1.379,0-2.713,0-4.078,0c-0.021,0.243-0.035,0.447-0.055,0.688c-0.506,0-1.016,0-1.566,0c0-0.357,0-0.705,0-1.105
	c-1.041-0.032-2.049-0.011-3.057-0.015c-0.994-0.004-1.99-0.001-3.039-0.001c0-3.446,0-6.844,0-10.26
	c-0.295-0.02-0.543-0.035-0.826-0.052c0-0.706,0-1.393,0-2.129c-0.365-0.005-0.695-0.039-1.025-0.01
	c-0.344,0.031-0.535-0.102-0.699-0.393c-0.307-0.539-0.637-1.063-0.977-1.578c-0.172-0.259-0.271-0.517-0.242-0.826
	c0.014-0.122-0.012-0.247-0.021-0.396c-1.268,0-2.512,0-3.812,0c0,0.264,0.014,0.514-0.006,0.759
	c-0.016,0.16-0.053,0.336-0.135,0.473c-0.338,0.569-0.699,1.122-1.037,1.69c-0.113,0.194-0.242,0.285-0.475,0.267
	c-0.25-0.021-0.502-0.002-0.811-0.002c-0.006,0.28-0.016,0.54-0.021,0.8c-0.004,0.137,0.023,0.279-0.18,0.323
	c-0.051,0.014-0.096,0.156-0.102,0.242c-0.014,0.249-0.004,0.5-0.004,0.767c-0.176,0.027-0.311,0.047-0.475,0.072
	c-0.012,0.242-0.02,0.478-0.033,0.72c-0.1,0.038-0.189,0.07-0.312,0.116c0,0.4,0,0.803,0,1.259c-0.521,0.031-1.01,0.011-1.498,0.016
	c-0.479,0.003-0.953,0-1.486,0c0,0.647,0,1.271,0,1.94c-0.91,0-1.762,0-2.666,0c0,1.289,0,2.535,0,3.799c-0.457,0-0.857,0-1.309,0
	c0-1.516,0-3.015,0-4.562c-0.643,0-1.238,0-1.877,0c0-0.493,0-0.937,0-1.396c-0.441-0.094-0.84-0.023-1.285-0.055
	c0,0.49,0,0.935,0,1.409c-0.682,0-1.318,0-1.977,0c-0.02-0.207-0.031-0.397-0.051-0.611c-1.146,0-2.281,0-3.439,0
	c-0.018,0.203-0.037,0.392-0.057,0.627c-1.145,0-2.275,0-3.459,0c0,3.009,0,5.971,0,8.957c-0.426,0-0.795,0-1.209,0
	c0-8.293,0-16.565,0-24.882c-0.303,0-0.562,0-0.871,0c0-0.529,0-1.015,0-1.538c-0.369,0-0.688,0-1.021,0
	c-0.035-0.149-0.062-0.264-0.098-0.409c-0.471,0-0.932,0-1.414,0c-0.025-0.177-0.047-0.329-0.07-0.505
	c-3.52-0.152-7.02-0.575-10.555-0.802c-0.115,0.364-0.045,0.714-0.059,1.058c-0.014,0.367-0.004,0.734-0.004,1.098
	c0,0.349,0,0.697,0,1.087c-0.447,0-0.852,0-1.295,0c0,8.848,0,17.652,0,26.516c-0.596,0.019-1.154,0.007-1.709,0.01
	c-0.58,0-1.156,0-1.732,0c-0.564,0-1.127,0-1.689,0c-0.576,0-1.154,0-1.73,0c-0.561,0-1.119,0-1.729,0c0,0.507,0,0.979,0,1.478
	c-1.434,0-2.816,0-4.23,0c0-2.68,0-5.345,0-8.031c0.135-0.021,0.252-0.037,0.387-0.055c0-0.857,0-1.693,0-2.578
	c-0.178,0-0.328,0-0.48,0c-1.295,0-2.59,0.001-3.883,0c-0.455,0-0.922,0.069-1.365-0.277c0-0.354,0-0.774,0-1.183
	c-0.312-0.104-4.521-0.131-5.113-0.035c0,0.419,0,0.846,0,1.327c-0.68,0-1.309,0-1.936,0c-0.615,0-1.232,0-1.863,0
	c0,0.893,0,1.73,0,2.577c0.158,0.021,0.293,0.035,0.449,0.056c0,1.661,0,3.3,0,4.995c-0.447,0.052-0.906,0.018-1.363,0.022
	c-0.451,0.005-0.902,0-1.352,0c-0.465,0-0.928,0-1.395,0c-0.465,0-0.93,0-1.395,0c-0.449,0-0.9,0-1.352,0c-0.463,0-0.93,0-1.395,0
	c-0.451,0-0.9,0-1.352,0c-0.463,0-0.926,0-1.434,0c0,0.829,0,1.624,0,2.473c-0.756,0-1.463,0-2.221,0c0,3.75,0,7.444,0,11.193
	c-1.232,0.009-2.424,0.019-3.613,0.025c0,3.05,0,6.101,0,9.146c-0.43-0.027-0.854-0.053-1.285-0.053
	c-0.561,0.002-0.787-0.219-0.773-0.775c0.02-0.958,0.004-1.917,0.004-2.877c0-0.82-0.109-0.929-0.951-0.926
	c-0.676,0-1.352,0.004-2.027,0.006c-1.129,0.005-1.16-0.028-1.16-1.18c0.002-7.347,0.002-14.691,0.002-22.035
	c0-1.062-0.08-1.219-1.102-1.08c-1.01,0.141-1.576-0.854-2.514-0.791c-0.047,0.002-0.105-0.126-0.158-0.192
	c-0.4-0.503-1.234-0.544-1.604-0.035c-0.266,0.367-0.416,0.354-0.676,0.001c-0.289-0.401-1.223-0.517-1.438-0.15
	c-0.256,0.438-0.584,0.517-1.021,0.52c-0.152,0-0.365,0.099-0.443,0.223c-0.254,0.403-0.623,0.41-1.029,0.403
	c-1.42-0.021-1.42-0.016-1.426,1.429c0,0.044,0,0.086,0,0.13c0,6.56-0.006,13.12,0.012,19.681c0,0.623-0.207,0.876-0.828,0.859
	c-0.914-0.022-1.832-0.017-2.744-0.007c-0.496,0.005-0.709-0.211-0.697-0.712c0.02-1.003,0.008-2.006,0.012-3.009
	c0-0.811-0.049-0.859-0.838-0.858c-1.439,0.003-2.879,0.01-4.318,0.003c-0.664-0.002-0.766-0.171-0.559-0.786
	c0.051-0.158-0.016-0.353-0.02-0.531c-0.008-0.226-0.01-0.447-0.008-0.676c0-0.194,0.021-0.391,0.02-0.587
	c-0.021-0.715-0.199-1.469-0.025-2.132c0.111-0.423-0.053-0.673-0.08-1.005c-0.043-0.479-0.021-0.964,0.01-1.447
	c0.01-0.153,0.139-0.301,0.215-0.447c0.094-0.177,0.189-0.351,0.285-0.522c-0.188-0.08-0.379-0.154-0.561-0.243
	c-0.164-0.082-0.32-0.183-0.479-0.272c0.092-0.15,0.189-0.301,0.271-0.455c0.096-0.176,0.287-0.391,0.24-0.525
	c-0.049-0.139-0.318-0.265-0.504-0.279c-0.479-0.035-0.959-0.012-1.438-0.003c-0.457,0.01-0.662-0.153-0.783-0.652
	c-0.107-0.458-0.428-1.099-0.791-1.21c-0.568-0.177-0.85-0.435-1.02-0.945c-0.055-0.157-0.199-0.288-0.395-0.554
	c-0.148,0.363-0.209,0.595-0.332,0.78c-0.148,0.226-0.334,0.564-0.536,0.59c-0.856,0.104-1.052,0.759-1.201,1.394
	c-0.104,0.43-0.286,0.601-0.696,0.598c-0.522-0.006-1.048-0.027-1.567,0.005c-0.158,0.012-0.367,0.156-0.435,0.297
	c-0.051,0.101,0.075,0.306,0.155,0.444c0.099,0.175,0.229,0.331,0.347,0.494c-0.197,0.103-0.396,0.197-0.587,0.305
	c-0.158,0.089-0.355,0.16-0.443,0.299c-0.038,0.062,0.172,0.259,0.223,0.406c0.097,0.282,0.182,0.571,0.226,0.863
	c0.026,0.181-0.061,0.374-0.054,0.559c0.032,0.642,0.087,1.28,0.122,1.919c0.005,0.079-0.068,0.164-0.075,0.247
	c-0.013,0.21-0.063,0.442,0.005,0.626c0.236,0.631-0.322,1.289,0.084,1.902c0.015,0.024-0.012,0.092-0.039,0.12
	c-0.251,0.267-0.195,0.509-0.029,0.816c0.098,0.181,0.006,0.459,0,0.695c-0.005,0.23-0.088,0.492-0.007,0.688
	c0.249,0.584-0.075,0.996-0.476,1.206c-0.316,0.165-0.79,0.058-1.184,0c-0.045-0.007-0.017-0.474-0.033-0.728
	c-0.012-0.167-0.055-0.328-0.064-0.493c-0.013-0.244-0.026-0.487-0.012-0.73c0.038-0.67,0.092-1.34,0.133-2.009
	c0.003-0.035-0.06-0.07-0.064-0.108c-0.032-0.282-0.09-0.567-0.077-0.848c0.028-0.635,0.096-1.269,0.139-1.901
	c0.003-0.054-0.085-0.113-0.087-0.171c-0.025-0.774-0.048-1.548-0.056-2.324c-0.002-0.186,0.092-0.373,0.077-0.555
	c-0.038-0.421-0.114-0.839-0.187-1.34c-0.653-0.217-0.374-0.856-0.439-1.391c-0.031-0.257-0.199-0.498-0.306-0.747
	c-0.099,0.232-0.188,0.469-0.298,0.696c-0.12,0.247-0.198,0.584-0.401,0.707c-0.313,0.188-0.717,0.226-1.087,0.331
	c-0.575-0.841-3.768-0.855-4.479-0.038c-0.297-0.137-0.574-0.333-0.877-0.383c-0.472-0.078-0.596-0.316-0.617-0.756
	c-0.011-0.226-0.219-0.438-0.337-0.658c-0.099,0.213-0.222,0.417-0.29,0.637c-0.043,0.141-0.021,0.308-0.005,0.455
	c0.062,0.521,0.045,1.003-0.436,1.191c-0.054,0.62-0.14,1.148-0.135,1.679c0.006,0.724,0.087,1.444,0.117,2.165
	c0.004,0.117-0.098,0.238-0.135,0.359c-0.035,0.118-0.114,0.294-0.063,0.354c0.313,0.384,0.111,0.762,0.074,1.17
	c-0.051,0.53,0.306,1.09-0.119,1.606c-0.021,0.025,0.026,0.124,0.061,0.175c0.26,0.38,0.348,0.803-0.016,1.121
	c-0.414,0.36-0.931,0.45-1.474,0.239c-0.664-0.258-0.813-0.634-0.496-1.271c0.053-0.108,0.148-0.296,0.109-0.34
	c-0.389-0.411-0.126-0.842-0.117-1.282c0.012-0.537-0.039-1.041,0.07-1.604c0.131-0.681-0.174-1.437-0.201-2.161
	c-0.028-0.734,0.056-1.471,0.096-2.325c-0.502,0-0.974,0.039-1.435-0.015c-0.243-0.029-0.62-0.169-0.675-0.344
	c-0.162-0.509-0.496-0.562-0.913-0.509c-0.616,0.081-0.902-0.161-0.872-0.792c0.016-0.348-0.008-0.697-0.028-1.045
	c-0.011-0.193-0.051-0.386-0.079-0.577c-0.068,0.001-0.137,0.003-0.206,0.005c-0.02,0.236-0.058,0.476-0.058,0.712
	c0.01,0.831-0.092,0.929-0.924,0.979c-0.215,0.014-0.549,0.089-0.607,0.229c-0.198,0.465-0.529,0.528-0.95,0.487
	c-0.419-0.041-0.738,0.021-0.926,0.505c-0.072,0.188-0.478,0.312-0.746,0.351c-0.437,0.055-0.883,0.014-1.384,0.014
	c0.044,0.859,0.088,1.572,0.107,2.283c0.005,0.139-0.099,0.281-0.129,0.426c-0.03,0.157-0.044,0.321-0.041,0.483
	c0.012,0.828,0.034,1.66,0.049,2.49c0.003,0.192-0.052,0.393-0.006,0.569c0.187,0.717-0.228,1.455,0.102,2.169
	c0.036,0.083-0.095,0.233-0.126,0.358c-0.03,0.122-0.092,0.287-0.038,0.369c0.246,0.372,0.081,0.709,0.038,1.096
	c-0.062,0.561,0.341,1.16-0.112,1.721c-0.02,0.021,0.068,0.112,0.072,0.172c0.06,0.741,0.112,1.482,0.164,2.225
	c0.002,0.018-0.024,0.041-0.024,0.06c-0.002,0.272,0.009,0.542-0.003,0.812c-0.009,0.158-0.005,0.379-0.101,0.458
	c-0.103,0.086-0.34,0.091-0.473,0.032c-0.145-0.061-0.252-0.229-0.355-0.365c-0.387-0.513-0.9-0.658-1.505-0.522
	c-0.779,0.172-1.229,0.678-1.463,1.426c-0.211,0.672-1.033,1.073-1.384,0.702c-0.445-0.47-0.839-0.997-1.331-1.408
	c-0.363-0.307-0.851-0.645-1.283-0.646c-0.816-0.005-1.697-0.154-2.445,0.396c-0.087,0.062-0.303,0.048-0.398-0.018
	c-1.033-0.693-0.653-1.774-0.723-2.729c-0.051-0.688,0.56-0.663,0.948-0.881c0.028-0.017,0.032-0.075,0.047-0.113
	c-0.391-0.321-0.776-0.65-1.181-0.957c-0.095-0.071-0.247-0.064-0.37-0.107c-0.282-0.1-0.595-0.157-0.832-0.322
	c-1.318-0.922-2.832-1.339-4.365-1.665c-2.724-0.58-5.49-0.554-8.265-0.54c-3.753,0.02-7.19,1.399-10.744,2.284
	c-0.829,0.206-0.907,0.188-0.907-0.669c0-2.484-0.004-4.97,0.003-7.454c0.001-0.48,0.077-0.967-0.567-1.146
	c-0.114-0.032-0.15-0.322-0.233-0.489c-0.097-0.194-0.205-0.383-0.308-0.573c-0.106,0.179-0.292,0.356-0.301,0.541
	c-0.025,0.457-0.244,0.605-0.665,0.612c-0.428,0.007-0.631-0.146-0.665-0.601c-0.017-0.239-0.154-0.609-0.326-0.672
	c-0.388-0.141-0.512-0.364-0.51-0.727c0.002-0.459-0.206-0.666-0.681-0.659c-1.31,0.017-2.615,0.015-3.925,0.007
	c-0.432-0.004-0.6,0.175-0.669,0.604c-0.103,0.605-0.293,1.195-0.471,1.786c-0.03,0.103-0.172,0.213-0.28,0.24
	c-0.426,0.104-0.432,0.409-0.432,0.76c0.006,5.929,0.004,11.858,0.004,17.785c0,0.196,0.061,0.427-0.023,0.579
	c-0.104,0.195-0.304,0.432-0.498,0.471c-0.592,0.114-0.741-0.113-0.741-1.023c0.001-8.719,0.003-17.438,0.003-26.157
	c0-0.391,0.023-0.795-0.066-1.169c-0.128-0.545-0.249-1.146-0.571-1.57c-0.173-0.229-0.761-0.138-1.16-0.206
	c-0.147-0.025-0.285-0.125-0.432-0.139c-0.318-0.024-0.641-0.044-0.957-0.019c-0.363,0.031-0.721,0.154-1.082,0.165
	c-0.806,0.023-1.615,0.032-2.419-0.008c-0.478-0.024-0.767,0.143-0.862,0.592c-0.147,0.698-0.373,1.405-0.375,2.104
	c-0.029,6.234-0.016,12.467-0.016,18.7c0,0.372,0.034,0.746-0.016,1.111c-0.027,0.193-0.203,0.369-0.313,0.553
	c-0.14-0.188-0.358-0.365-0.399-0.574c-0.067-0.356-0.023-0.736-0.022-1.107c0.021-7.563,0.044-15.125,0.059-22.688
	c0.005-2.158-0.018-4.314-0.029-6.474c-0.001-0.357,0.007-0.737-0.488-0.772c-0.533-0.035-0.635-0.357-0.596-0.811
	c0.02-0.213-0.006-0.435,0.012-0.652c0.047-0.571-0.22-0.796-0.774-0.77c-0.737,0.04-1.476,0.065-2.212,0.082
	c-0.396,0.009-0.82,0.04-0.829-0.559c-0.008-0.522,0.118-0.912,0.747-0.9c0.373,0.007,0.745,0,1.19,0
	c-0.323-0.628-0.896-0.474-1.371-0.49c-0.777-0.029-0.935,0.143-0.957,0.886c-0.03,1.031-0.032,1.009-1.067,1.083
	c-0.292,0.021-0.743,0.147-0.827,0.345c-0.338,0.815-0.716,1.664-0.796,2.525c-0.159,1.709-0.174,3.438-0.174,5.156
	c-0.004,7.605,0.018,15.214,0.029,22.82c0,0.195,0.058,0.425-0.02,0.58c-0.119,0.238-0.306,0.473-0.523,0.625
	c-0.162,0.114-0.417,0.104-0.631,0.138c-0.488,0.071-1.022,0.049-1.151,0.724c-0.018,0.096-0.229,0.195-0.367,0.222
	c-0.66,0.129-1.327,0.233-1.992,0.344c-0.021,0.004-0.051-0.061-0.077-0.093c0.052-0.014,0.104-0.027,0.155-0.04
	c-0.029-0.311-0.072-0.619-0.083-0.932c-0.005-0.139,0.064-0.279,0.076-0.422c0.014-0.173,0.003-0.35,0-0.522
	c-0.004-0.177-0.013-0.351-0.019-0.525c-0.006-0.194-0.011-0.392-0.011-0.59c0.001-0.174,0.004-0.349,0.022-0.521
	c0.015-0.139,0.089-0.279,0.077-0.413c-0.054-0.511-0.136-1.016-0.192-1.524c-0.007-0.07,0.101-0.148,0.11-0.229
	c0.019-0.179,0.005-0.357,0.011-0.539c0.004-0.192,0.014-0.382,0.022-0.574c0.005-0.141,0.019-0.278,0.02-0.419
	c0.004-0.231,0.01-0.466,0.003-0.698c-0.004-0.159-0.035-0.316-0.044-0.476c-0.011-0.173-0.009-0.347-0.013-0.519
	c-0.004-0.198-0.014-0.396-0.012-0.589c0.001-0.179,0.018-0.354,0.022-0.529c0.002-0.175-0.001-0.347-0.003-0.521
	c-0.001-0.179-0.005-0.358-0.003-0.536c0.003-0.18,0.017-0.356,0.02-0.533c0.003-0.191-0.003-0.382,0-0.571
	c0-0.161,0.005-0.322,0.008-0.485c0.007-0.214,0.023-0.428,0.02-0.641c-0.003-0.159-0.035-0.313-0.043-0.471
	c-0.009-0.178-0.009-0.354-0.014-0.534c-0.001-0.197-0.006-0.393-0.003-0.588c0.002-0.175,0.014-0.349,0.02-0.522
	c0.004-0.179,0.004-0.354,0.008-0.534c0.004-0.195,0.011-0.391,0.011-0.587c0.001-0.153-0.004-0.312-0.007-0.468
	c-0.004-0.195-0.007-0.392-0.011-0.586c-0.004-0.179-0.011-0.356-0.013-0.535c-0.001-0.173,0.001-0.348,0-0.52
	c-0.001-0.197-0.001-0.393-0.008-0.588c-0.002-0.162-0.004-0.326-0.02-0.489c-0.018-0.189-0.04-0.381-0.08-0.569
	c-0.047-0.227-0.157-0.448-0.16-0.673c-0.006-0.503-0.224-0.698-0.727-0.678c-0.587,0.023-1.245,0.207-1.601-0.524
	c-0.029-0.058-0.155-0.106-0.231-0.099c-0.775,0.069-1.667-0.415-2.278,0.479c-0.068,0.101-0.272,0.144-0.416,0.146
	c-0.541,0.018-0.689,0.305-0.688,0.809c0.017,6.583,0.018,13.165,0.025,19.748c0,0.261,0,0.522,0,0.784
	c0.001,0.423-0.055,0.831-0.603,0.815c-0.509-0.016-0.46-0.435-0.463-0.78c-0.006-1.046-0.001-2.091-0.002-3.138
	c-0.02-8.107-0.042-16.215-0.05-24.32c0-0.611-0.224-0.882-0.843-0.862c-1.197,0.038-2.395,0.054-3.594,0.073
	c-0.45,0.008-0.68,0.193-0.678,0.673c0.009,2.241-0.002,4.485,0,6.729c0.001,2.004,0.023,4.01,0.003,6.015
	c-0.003,0.235-0.176,0.634-0.341,0.676c-0.797,0.203-1.48,0.834-2.399,0.615c-0.369-0.088-0.643,0.138-0.62,0.559
	c0.031,0.604-0.294,0.746-0.821,0.7c-0.489-0.043-0.785,0.128-0.785,0.696c0,0.19-0.169,0.479-0.334,0.549
	c-0.385,0.165-0.43,0.429-0.428,0.781c0.013,0.98,0.023,1.964-0.012,2.941c-0.005,0.177-0.234,0.345-0.359,0.517
	c-0.106-0.167-0.241-0.322-0.31-0.505c-0.049-0.134-0.011-0.301-0.011-0.454c0.005-2.726,0.02-5.449,0.016-8.173
	c-0.004-3.442-0.022-6.886-0.036-10.326c-0.005-1.133-0.001-2.266-0.041-3.397c-0.008-0.259-0.097-0.623-0.28-0.75
	c-0.368-0.259-0.413-0.567-0.41-0.956c0.005-2.308,0-4.619,0.002-6.929c0.001-0.942,0.007-0.932-0.925-0.994
	c-0.194-0.012-0.442-0.086-0.563-0.223c-0.732-0.825-1.42-1.693-2.164-2.506c-0.136-0.147-0.598-0.24-0.695-0.143
	c-0.748,0.757-1.487,1.532-2.132,2.375c-0.238,0.315-0.424,0.549-0.807,0.5c-0.689-0.086-0.855,0.235-0.846,0.869
	c0.037,2.333,0.038,4.666,0.028,6.996c-0.001,0.279-0.084,0.737-0.249,0.802c-0.59,0.229-0.534,0.674-0.534,1.13
	c0.002,4.688,0.008,9.374,0.009,14.06c0.001,5.688,0.003,11.377-0.002,17.065c0,0.271-0.07,0.544-0.105,0.813
	c-0.098,0-0.195,0.001-0.292,0.001c-0.044-0.315-0.124-0.634-0.124-0.95c0.005-11.269,0.017-22.538,0.04-33.804
	c0.002-0.564-0.152-0.775-0.744-0.752c-0.713,0.027-1.541,0.152-2.12-0.146c-0.838-0.432-1.639-0.34-2.468-0.326
	c-0.621,0.013-1.221,0.573-1.233,1.104c-0.05,1.98-0.117,3.961-0.13,5.939c-0.022,2.748,0.001,5.494,0.001,8.239
	c0,6.781-0.003,13.559-0.005,20.336c0,0.406-0.003,0.854-0.539,0.854c-0.101-0.001-0.285-0.507-0.285-0.781
	c-0.016-7.017-0.016-14.036-0.001-21.053c0.001-0.524-0.17-0.908-0.555-1.257c-2.724-2.479-5.432-4.976-8.152-7.455
	c-0.161-0.146-0.379-0.229-0.684-0.404c-0.029,0.367-0.063,0.596-0.063,0.824c0,7.87,0.003,15.735,0.005,23.604
	c0,0.175,0.027,0.353-0.002,0.521c-0.029,0.154-0.088,0.395-0.19,0.427c-0.121,0.037-0.327-0.066-0.45-0.168
	c-0.45-0.373-0.705-0.807-0.705-1.453c0.018-13.884,0.011-27.767,0.025-41.651c0-0.347,0.117-0.723,0.281-1.034
	c0.451-0.865,0.015-1.691-0.939-1.708c-0.946-0.02-0.93-0.021-1.081-1.029c-0.028-0.185-0.24-0.463-0.385-0.474
	c-0.163-0.013-0.478,0.214-0.496,0.363c-0.075,0.604-0.449,0.659-0.931,0.646c-0.544-0.019-1.089-0.017-1.635,0
	c-0.21,0.008-0.422,0.066-0.628,0.125c-0.423,0.117-0.837,0.333-1.262,0.349c-0.562,0.024-0.762,0.204-0.761,0.776
	c0.032,6.69,0.055,13.38,0.058,20.069c0.001,5.579-0.029,11.16-0.042,16.738c-0.001,0.938,0,1.874,0,2.812
	c0.001,0.945-0.085,1.006-0.965,0.739c-0.374-0.112-0.761-0.229-1.146-0.253c-0.226-0.012-0.562,0.086-0.677,0.254
	c-1.293,1.886-2.581,3.775-3.81,5.704c-0.523,0.82-0.252,1.435,0.607,1.853c1.985,0.967,1.663,0.521,1.772,2.687
	c0.033,0.659-0.172,1.151-0.575,1.661c-0.788,1.001-1.491,2.065-2.243,3.096c-0.077,0.105-0.248,0.22-0.357,0.201
	c-0.112-0.017-0.249-0.172-0.285-0.296c-0.055-0.181-0.037-0.387-0.037-0.582c-0.001-12.991,0-25.98,0-38.972
	c0-0.305-0.006-0.611,0.003-0.916c0.016-0.469-0.14-0.761-0.672-0.729c-0.453,0.03-0.621-0.215-0.605-0.645
	c0.015-0.479,0.054-0.967-0.008-1.438c-0.025-0.188-0.329-0.51-0.436-0.481c-0.22,0.051-0.454,0.265-0.567,0.475
	c-0.091,0.168-0.017,0.426-0.01,0.645c0.011,0.406-0.146,0.644-0.58,0.724c-0.208,0.036-0.383,0.229-0.58,0.339
	c-0.249,0.138-0.494,0.324-0.762,0.376c-0.337,0.064-0.695,0-1.043,0.019c-0.594,0.027-0.921-0.186-0.839-0.834
	c0.07-0.56-0.122-0.859-0.75-0.852c-0.63,0.008-0.679,0.372-0.696,0.859c-0.008,0.252-0.104,0.668-0.254,0.72
	c-0.596,0.193-0.577,0.622-0.577,1.093c0.004,7.782,0.002,15.562,0.004,23.344c0,3.575,0.004,7.147,0.005,10.722
	c0,0.733-0.148,0.847-0.862,0.672c-0.253-0.061-0.509-0.15-0.766-0.16c-0.521-0.02-0.691-0.275-0.742-0.776
	c-0.203-1.949-0.431-3.898-0.689-5.843c-0.088-0.668-0.074-1.12,0.763-1.249c0.472-0.071,0.917-0.357,0.9-1.023
	c-0.02-0.647-0.226-1.035-0.915-1.099c-0.209-0.019-0.407-0.157-0.616-0.208c-0.424-0.098-0.583-0.352-0.634-0.783
	c-0.286-2.466-0.619-4.929-0.905-7.397c-0.552-4.76-1.128-9.517-1.614-14.285c-0.635-6.25-0.425-12.5,0.228-18.732
	c0.385-3.683,0.97-7.343,1.439-11.016c0.294-2.291,0.114-1.928,2.308-2.178c0.323-0.036,0.645-0.09,0.967-0.137
	c0.007-0.071,0.014-0.144,0.021-0.215c-0.155-0.086-0.339-0.144-0.465-0.26c-0.143-0.133-0.324-0.313-0.333-0.481
	c-0.032-0.701,0.583-1.294,1.289-1.335c0.406-0.023,0.81-0.098,1.216-0.149c-0.003-0.062-0.004-0.125-0.007-0.188
	c-0.136-0.044-0.269-0.114-0.409-0.131c-0.473-0.056-0.734-0.195-0.513-0.757c0.19-0.477-0.209-0.658-0.558-0.799
	c-1.576-0.62-3.157-1.226-4.735-1.841c-0.413-0.161-0.688-0.397-0.431-0.892c0.249-0.474-0.147-1.312-0.663-1.423
	c-1.178-0.252-1.647-0.817-1.679-2.014c-0.026-0.916-0.059-1.829-0.098-2.743c-0.014-0.288-0.055-0.566-0.083-0.848
	c-0.064,0.004-0.127,0.01-0.19,0.014c-0.066,1.237-0.134,2.473-0.197,3.71c-0.052,1.035-0.611,1.685-1.624,1.873
	c-0.606,0.116-0.994,0.889-0.719,1.429c0.216,0.428,0.03,0.715-0.497,0.913c-1.584,0.603-3.161,1.223-4.735,1.846
	c-0.349,0.138-0.625,0.368-0.477,0.797c0.172,0.509-0.073,0.675-0.523,0.727c-0.134,0.016-0.265,0.088-0.397,0.135
	c0,0.062-0.002,0.126-0.003,0.187c0.41,0.052,0.818,0.121,1.229,0.15c0.736,0.055,1.027,0.331,1.265,1.167
	c0.182,0.639-0.385,0.608-0.686,0.825c-0.045,0.032-0.054,0.111-0.084,0.173c0.047,0.055,0.084,0.138,0.131,0.144
	c0.603,0.081,1.208,0.199,1.811,0.208c0.67,0.011,0.971,0.283,1.056,0.951c0.593,4.667,1.309,9.323,1.793,14.001
	c0.792,7.644,0.445,15.28-0.496,22.896c-0.625,5.037-1.254,10.075-1.873,15.113c-0.148,1.211-0.157,1.271-1.349,1.565
	c-0.525,0.129-0.754,0.375-0.835,0.913c-0.085,0.573,0.174,0.865,0.614,1.084c0.231,0.114,0.518,0.14,0.722,0.286
	c0.143,0.103,0.267,0.345,0.256,0.517c-0.008,0.13-0.229,0.313-0.381,0.349c-0.197,0.045-0.457,0.021-0.63-0.075
	c-0.386-0.216-0.704-0.168-1.102,0.004c-0.8,0.345-1.246,0.01-1.248-0.864c0-0.218-0.012-0.438,0.005-0.654
	c0.062-0.803-0.254-1.655,0.341-2.393c0.079-0.097,0.053-0.391-0.037-0.485c-0.304-0.312-0.1-0.548-0.044-0.883
	c0.11-0.688-0.015-1.421-0.013-2.136c0-0.28-0.043-0.551-0.016-0.866c0.065-0.717,0.055-1.458,0.034-2.18
	c-0.01-0.301-0.038-0.561-0.01-0.878c0.059-0.692,0.085-1.428,0.007-2.111c-0.04-0.354,0.001-0.636,0.009-0.959
	c0.012-0.686,0.015-1.377,0.001-2.062c-0.006-0.338,0.005-0.663,0.003-0.982c-0.005-0.688,0.058-1.379,0.009-2.051
	c-0.023-0.321-0.054-0.589-0.023-0.933c0.058-0.678,0.03-1.389,0.005-2.075c-0.014-0.337-0.245-0.645,0.037-0.985
	c0.073-0.089,0.125-0.302,0.074-0.365c-0.363-0.45-0.105-0.865-0.061-1.334c0.051-0.521-0.116-1.043,0-1.636
	c0.077-0.4-0.327-0.92,0.061-1.403c0.051-0.063,0.001-0.286-0.073-0.359c-0.332-0.317-0.059-0.596-0.037-0.916
	c0.055-0.697-0.017-1.409,0.01-2.12c0.019-0.51-0.271-1.023-0.302-1.545c-0.053-0.936,0-1.875-0.026-2.811
	c-0.007-0.268-0.129-0.532-0.206-0.793c-0.083-0.281-0.243-0.559-0.249-0.837c-0.026-1.318-0.006-2.627-0.007-3.934
	c0-0.301,0.044-0.708-0.399-0.646c-0.159,0.021-0.367,0.424-0.376,0.661c-0.041,1.022-0.015,2.049-0.016,3.071
	c-0.001,0.419-0.142,0.667-0.633,0.571c-0.982-0.19-1.969-0.365-2.957-0.536c-1.673-0.289-3.351-0.564-5.022-0.857
	c-0.549-0.098-0.774,0.108-0.746,0.66c0.022,0.413,0.034,0.83-0.011,1.238c-0.02,0.182-0.181,0.49-0.294,0.498
	c-0.789,0.055-0.718,0.595-0.718,1.131c0.002,7.562,0.002,15.126,0.002,22.688c0.001,5.296,0.009,10.594-0.008,15.888
	c0,0.32-0.073,0.78-0.285,0.927c-0.392,0.274-0.455,0.576-0.47,0.991c-0.01,0.245-0.144,0.487-0.223,0.731
	c-0.27-0.118-0.539-0.236-1.012-0.444c1.215-0.45,0.699-0.835,0.142-1.231c0.953-0.369,0.663-0.772,0.099-1.139
	c0.584-0.576,0.584-0.576,0.017-1.247c0.659-0.35,0.694-0.742-0.068-1.134c0.678-0.395,0.8-0.786-0.023-1.179
	c0.735-0.4,0.766-0.817,0.112-1.201c0.532-0.58,0.532-0.58-0.005-1.225c0.503-0.522,0.503-0.522-0.032-1.249
	c0.876-0.354,0.534-0.756-0.136-1.187c1.22-0.361,0.559-0.77,0.083-1.182c0.926-0.378,0.587-0.763-0.016-1.159
	c0.92-0.391,0.596-0.798,0.004-1.199c0.62-0.327,0.896-0.656,0.158-1.05c-0.074-0.042-0.125-0.188-0.127-0.286
	c-0.016-0.521-0.349-0.585-0.763-0.568c-0.238,0.012-0.488,0.042-0.715-0.015c-0.162-0.04-0.345-0.184-0.412-0.331
	c-0.036-0.077,0.156-0.258,0.247-0.394c0.14-0.206,0.283-0.411,0.425-0.616c-0.244-0.104-0.485-0.279-0.732-0.29
	c-0.828-0.035-1.655-0.011-2.484-0.011c-1.109,0.002-1.11,0.002-1.111-1.07c-0.003-2.55-0.003-5.1-0.003-7.65
	c0-1.853,0.014-3.706-0.015-5.558c-0.004-0.249-0.233-0.713-0.341-0.708c-1.004,0.043-0.893-0.61-0.918-1.262
	c-0.012-0.255-0.26-0.696-0.434-0.713c-0.595-0.056-0.745-0.448-0.899-0.888c-0.448-1.275-0.448-1.275-1.78-1.272
	c-0.064,0-0.131,0-0.197,0c-1.452,0.001-1.461,0-1.819,1.397c-0.104,0.401-0.262,0.695-0.721,0.692
	c-0.436,0-0.561,0.259-0.555,0.638c0.005,0.263,0.069,0.545-0.012,0.777c-0.076,0.215-0.316,0.539-0.471,0.532
	c-0.704-0.035-0.773,0.351-0.771,0.903c0.014,8.85,0.018,17.699,0.025,26.55c0,0.149,0.038,0.324-0.021,0.452
	c-0.079,0.175-0.233,0.315-0.357,0.469c-0.124-0.151-0.333-0.292-0.354-0.459c-0.089-0.623-0.156-1.254-0.157-1.884
	c-0.009-8.651-0.009-17.305,0.005-25.959c0-0.341,0.154-0.697,0.3-1.019c0.169-0.368,0.159-0.631-0.26-0.771
	c-0.364-0.121-0.726-0.266-1.102-0.325c-0.263-0.042-0.58-0.038-0.811,0.073c-0.752,0.357-0.981,0.264-1.004-0.564
	c-0.013-0.521-0.25-0.694-0.726-0.686c-0.501,0.011-1.006,0.03-1.503-0.005c-0.618-0.044-0.967,0.123-0.901,0.823
	c0.046,0.498-0.218,0.694-0.723,0.666c-0.651-0.036-1.307-0.039-1.96-0.009c-0.186,0.006-0.451,0.129-0.52,0.273
	c-0.072,0.146,0.04,0.394,0.099,0.589c0.066,0.218,0.235,0.427,0.238,0.642c0.018,1.504,0.008,3.006-0.003,4.512
	c-0.001,0.164-0.074,0.326-0.134,0.579c-0.57-0.776-0.57-0.774-1.078-0.111c-0.051,0.065-0.12,0.131-0.195,0.167
	c-0.542,0.274-0.516,0.627-0.173,1.053c0.097,0.119,0.128,0.291,0.189,0.438c-0.156,0.057-0.312,0.157-0.466,0.153
	c-0.427-0.009-0.762,0.055-0.932,0.532c-0.03,0.087-0.481,0.163-0.573,0.073c-0.475-0.458-0.754-0.235-1.03,0.203
	c-0.079,0.129-0.179,0.299-0.301,0.33c-0.583,0.16-0.526,0.604-0.526,1.045c0.005,4.144,0.007,8.282,0.005,12.424
	c0,0.784-0.099,0.879-0.854,0.873c-0.765-0.006-0.847-0.089-0.847-0.877c0-8.043,0-16.086,0-24.128c0-0.763,0.004-1.526,0-2.29
	c-0.001-0.392-0.121-0.717-0.6-0.656c-0.457,0.059-0.71-0.114-0.936-0.518c-0.29-0.52-1.537-0.48-1.776,0.047
	c-0.177,0.395-0.437,0.493-0.82,0.489c-1.155-0.015-2.31-0.008-3.465-0.024c-0.716-0.011-1.373-0.034-1.822,0.748
	c-0.312,0.544-0.376,1.069,0.066,1.557c0.154,0.169,0.258,0.453,0.259,0.687c0.014,5.23,0.008,10.46,0.011,15.693
	c0,0.385-0.056,0.757-0.538,0.701c-0.495-0.059-1.216,0.372-1.395-0.501c-0.09-0.447-0.33-0.56-0.732-0.549
	c-0.762,0.015-1.526-0.017-2.288,0.016c-0.605,0.025-0.877-0.179-0.865-0.825c0.029-1.437,0.005-2.876,0.012-4.313
	c0.001-0.193-0.027-0.463,0.084-0.565c0.671-0.63,0.354-1.433,0.416-2.164c0.041-0.491-0.202-0.748-0.712-0.663
	c-0.471,0.077-0.795-0.089-1.027-0.502c-0.135-0.239-0.321-0.45-0.382-0.532c-0.73,0-1.337-0.034-1.935,0.017
	c-0.232,0.021-0.625,0.209-0.646,0.362c-0.09,0.646-0.493,0.689-0.989,0.667c-0.371-0.016-0.741-0.004-1.112-0.021
	c-0.41-0.017-0.643,0.184-0.621,0.575c0.042,0.756-0.275,1.582,0.404,2.229c0.064,0.062,0.075,0.204,0.075,0.31
	c0.001,2.464,0.011,4.926-0.023,7.389c-0.001,0.198-0.283,0.542-0.458,0.559c-0.606,0.059-0.707,0.396-0.679,0.893
	c0.021,0.413,0.03,0.83,0.015,1.242c-0.007,0.187-0.091,0.373-0.14,0.559c-0.07,0.008-0.139,0.015-0.209,0.022
	c-0.029-0.708-0.825-0.978-0.766-1.812c0.135-1.896,0.052-1.686-1.608-1.668c-2.035,0.02-1.858-0.392-1.884,1.87
	c-0.002,0.286-0.277,0.563-0.403,0.854c-0.28,0.647-0.976,1.066-0.912,1.915c0.07,0.933,0,1.873,0.02,2.812
	c0.013,0.558-0.226,0.807-0.778,0.777c-1.139-0.059-2.281-0.069-3.414-0.183c-0.491-0.049-0.688,0.152-0.817,0.535
	c-0.131,0.389-0.277,0.78-0.344,1.183c-0.074,0.448-0.326,0.562-0.727,0.559c-0.697-0.014-1.395,0-2.091,0
	c-0.383,0-0.65,0.131-0.614,0.565c0.045,0.579-0.269,0.72-0.766,0.681c-0.216-0.019-0.451-0.058-0.649,0.007
	c-0.25,0.077-0.622,0.202-0.677,0.388c-0.121,0.404,0.212,0.531,0.583,0.59c0.156,0.023,0.287,0.199,0.429,0.308
	c-0.142,0.105-0.282,0.214-0.426,0.313c-0.204,0.145-0.544,0.251-0.591,0.433c-0.096,0.385,0.231,0.475,0.566,0.531
	c0.154,0.027,0.283,0.202,0.425,0.311c-0.145,0.101-0.293,0.198-0.435,0.306c-0.199,0.153-0.391,0.314-0.585,0.47
	c0.189,0.159,0.373,0.322,0.567,0.477c0.151,0.118,0.311,0.225,0.466,0.337c-0.15,0.1-0.29,0.264-0.449,0.281
	c-0.356,0.045-0.646,0.181-0.557,0.548c0.044,0.181,0.375,0.294,0.58,0.434c0.146,0.102,0.297,0.191,0.446,0.287
	c-0.142,0.107-0.274,0.29-0.425,0.309c-0.381,0.044-0.688,0.183-0.599,0.583c0.041,0.178,0.38,0.287,0.583,0.431
	c0.143,0.098,0.283,0.2,0.423,0.301c-0.154,0.09-0.301,0.243-0.463,0.261c-0.365,0.043-0.587,0.18-0.549,0.57
	c0.047,0.495-0.24,0.591-0.643,0.587c-0.632-0.008-1.265-0.004-1.896-0.006c-0.78-0.001-0.866,0.077-0.869,0.857
	c-0.004,1.396,0.002,2.79,0.001,4.184c0,0.905-0.077,0.984-0.953,0.985c-0.458,0-0.916-0.001-1.374-0.001c0,1.786,0,3.572,0,5.359
	c103.075,0,206.149,0,309.223,0c0.33,0,0.658,0,0.988,0c80.193,0,160.385,0,240.576,0c0-1.321,0-2.646,0-3.969
	C549.876,86.181,548.96,86.191,548.048,86.198z M101.902,14.849c0.006-0.075,0.136-0.184,0.218-0.191
	c0.068-0.008,0.221,0.116,0.214,0.17c-0.085,0.774-0.192,1.55-0.292,2.322c-0.099-0.009-0.198-0.019-0.295-0.027
	C101.794,16.365,101.836,15.606,101.902,14.849z M95.425,18.118c-0.188-1.043-0.385-2.083-0.551-3.13
	c-0.02-0.121,0.136-0.27,0.21-0.406c0.097,0.102,0.266,0.196,0.278,0.305c0.115,1.069,0.205,2.14,0.301,3.212
	C95.583,18.104,95.505,18.112,95.425,18.118z M96.195,15.118c-0.011-0.186,0.218-0.389,0.336-0.581
	c0.138,0.137,0.394,0.271,0.394,0.409c-0.005,1.609-0.047,3.22-0.084,4.83c0,0.029-0.058,0.055-0.164,0.149
	c-0.054-0.247-0.117-0.439-0.135-0.639C96.416,17.896,96.284,16.508,96.195,15.118z M96.545,76.814
	c-0.001,0.308,0.033,0.662-0.41,0.674c-0.436,0.013-0.437-0.323-0.441-0.646c-0.01-0.927-0.018-0.905-0.945-1.104
	c-0.191-0.043-0.421-0.302-0.471-0.5c-0.081-0.33-0.008-0.692-0.042-1.038c-0.023-0.229-0.048-0.538-0.195-0.653
	c-0.668-0.528-0.362-1.155-0.194-1.731c0.053-0.176,0.437-0.364,0.664-0.357c0.649,0.019,1.297,0.12,1.938,0.236
	c0.062,0.013,0.086,0.36,0.088,0.551c0.009,0.762,0.002,1.521,0.002,2.285c0.001,0,0.003,0,0.005,0
	C96.547,75.29,96.549,76.051,96.545,76.814z M95.708,68.132c-1.718-0.028-1.466,0.011-1.289-1.465
	c0.338-2.811,0.714-5.614,1.078-8.421c0.046-0.357,0.147-0.779,0.597-0.667c0.196,0.048,0.42,0.467,0.429,0.724
	c0.04,1.501,0.021,3.004,0.021,4.506c0,0,0,0,0.001,0c0,1.501-0.02,3.005,0.01,4.509C96.567,67.953,96.331,68.141,95.708,68.132z
	 M96.943,55.793c0,0.478-0.12,0.82-0.701,0.763c-0.549-0.055-0.504-0.423-0.459-0.813c0.243-2.16,0.478-4.322,0.72-6.48
	c0.035-0.31,0.106-0.616,0.161-0.922c0.065,0,0.128,0.001,0.193,0.004c0.033,0.46,0.092,0.921,0.093,1.384
	C96.958,51.747,96.944,53.768,96.943,55.793z M100.972,51.346c0.008,0.106-0.151,0.224-0.232,0.333
	c-0.102-0.09-0.29-0.181-0.29-0.274c0.001-0.627,0.042-1.256,0.07-1.883c0.085,0,0.172-0.001,0.257-0.003
	C100.844,50.127,100.926,50.735,100.972,51.346z M100.244,21.808c-0.026-0.355-0.072-0.712-0.072-1.064
	c-0.003-1.846,0.005-3.69,0.008-5.535c0-0.343,0.007-0.701,0.481-0.674c0.478,0.023,0.436,0.381,0.404,0.721
	c-0.182,1.924-0.356,3.847-0.539,5.77c-0.026,0.265-0.079,0.529-0.118,0.794C100.354,21.815,100.296,21.812,100.244,21.808z
	 M100.468,55.974c-0.064-0.845-0.055-1.696-0.023-2.542c0.007-0.178,0.227-0.349,0.349-0.521c0.14,0.165,0.378,0.314,0.405,0.498
	c0.125,0.815,0.189,1.642,0.257,2.273c0.074,0.567-0.037,0.905-0.458,0.843C100.793,56.497,100.485,56.18,100.468,55.974z
	 M100.914,58.069c0.026-0.187,0.252-0.342,0.388-0.511c0.153,0.155,0.409,0.289,0.441,0.463c0.162,0.874,0.272,1.76,0.388,2.645
	c0.048,0.365-0.105,0.583-0.499,0.598c-0.385,0.015-0.716-0.046-0.733-0.521c-0.015-0.458-0.003-0.914-0.003-1.369
	C100.894,58.935,100.855,58.494,100.914,58.069z M100.941,64.384c-0.019,0-0.035,0-0.054,0c0-0.478,0.004-0.953-0.001-1.43
	c-0.004-0.342,0.071-0.619,0.479-0.626c0.403-0.006,0.91-0.113,1.002,0.454c0.176,1.089,0.298,2.188,0.407,3.287
	c0.012,0.127-0.19,0.38-0.317,0.397c-0.381,0.057-0.784,0.075-1.158,0.003c-0.148-0.029-0.323-0.336-0.342-0.528
	C100.911,65.425,100.941,64.904,100.941,64.384z M102.777,67.664c0.071,0.065,0.08,0.329,0.011,0.396
	c-0.22,0.218-1.313,0.064-1.605-0.187C101.452,67.621,102.549,67.451,102.777,67.664z M101.46,72.495
	c-0.1-1.005-0.046-1.062,0.993-1.06c0.13,0,0.289-0.05,0.384,0.007c0.229,0.138,0.582,0.297,0.612,0.489
	c0.202,1.267,0.354,2.537,0.465,3.812c0.013,0.167-0.272,0.41-0.473,0.523c-0.146,0.084-0.381,0.017-0.576,0.017
	c-1.06,0-1.049-0.001-1.136-1.067C101.658,74.31,101.548,73.405,101.46,72.495z M104.214,78.392
	c-0.071,0.251-1.429,0.537-1.859,0.396c-0.289-0.096-0.596-0.877-0.353-1.113c0.242-0.235,0.654-0.3,0.989-0.438
	c1.051,0.125,1.264,0.276,1.236,0.962C104.229,78.263,104.232,78.33,104.214,78.392z M151.9,39.331
	c-0.033,0.021-0.277-0.213-0.264-0.233c0.099-0.161,0.217-0.325,0.369-0.427c0.057-0.036,0.226,0.101,0.434,0.203
	C152.211,39.08,152.069,39.23,151.9,39.331z M157.85,39.316c-0.172-0.106-0.31-0.263-0.46-0.403c0.084-0.082,0.19-0.247,0.245-0.231
	c0.179,0.052,0.338,0.17,0.617,0.324C158.042,39.171,157.887,39.34,157.85,39.316z M216.932,73.48
	c0.383-0.062,0.769-0.129,1.214-0.201C217.925,73.825,217.588,73.899,216.932,73.48z M219.68,73.697
	c-0.397,0.018-0.798-0.042-1.196-0.073c-0.003-0.135-0.007-0.271-0.011-0.403c0.378-0.07,0.753-0.17,1.134-0.192
	c0.114-0.011,0.326,0.185,0.339,0.305C219.957,73.448,219.779,73.694,219.68,73.697z M232.561,74.582
	c-0.334,0.028-0.668,0.057-1.003,0.036c-0.527-0.03-1.057-0.076-1.578-0.155c-0.839-0.131-1.665-0.346-2.506-0.426
	c-0.845-0.078-1.698-0.033-2.55-0.046c-0.043,0-0.092,0.018-0.13,0c-0.829-0.368-1.721-0.032-2.571-0.233
	c-0.324-0.076-0.688,0.032-1.031,0.021c-0.369-0.017-0.913,0.138-0.943-0.391c-0.013-0.21,0.52-0.448,0.803-0.673
	c0.042,0.076,0.085,0.155,0.126,0.233c0.511-0.055,1.02-0.114,1.527-0.159c0.626-0.06,1.216,0.161,1.886,0.073
	c0.9-0.118,1.854,0.202,2.787,0.311c0.772,0.09,1.554,0.11,2.322,0.22c0.415,0.059,0.812,0.238,1.221,0.36
	c0.137,0.041,0.274,0.086,0.414,0.101c0.104,0.009,0.232-0.07,0.316-0.035c0.327,0.143,0.646,0.308,0.955,0.484
	C232.639,74.322,232.587,74.579,232.561,74.582z M233.956,74.944c-0.395,0.067-0.765,0.071-0.98-0.349
	c0.03-0.083,0.062-0.167,0.094-0.25c0.321,0.125,0.646,0.25,0.97,0.373C234.009,74.793,233.981,74.868,233.956,74.944z
	 M292.251,57.309c0.004-0.179,0.158-0.352,0.242-0.527c0.088,0.173,0.244,0.344,0.25,0.518c0.023,0.925,0.016,1.85,0.002,2.774
	c-0.006,0.196-0.082,0.394-0.123,0.591c-0.088,0.003-0.178,0.004-0.266,0.004c-0.037-0.259-0.105-0.519-0.109-0.778
	C292.234,59.031,292.228,58.168,292.251,57.309z M292.712,62.546c-0.002,0.062-0.15,0.172-0.227,0.165s-0.207-0.121-0.207-0.192
	c-0.02-0.47-0.012-0.938-0.012-1.411c0.145-0.003,0.289-0.005,0.43-0.01C292.705,61.58,292.726,62.063,292.712,62.546z
	 M292.472,63.236c0.4,0.364,0.422,1.055,0.053,1.546C292.144,64.424,292.121,63.71,292.472,63.236z M292.634,67.376
	c0,0.612,0,1.223,0,1.835c-0.076,0-0.152,0.002-0.229,0.003c-0.273-0.603-0.18-1.214-0.059-1.827
	C292.443,67.384,292.539,67.38,292.634,67.376z M292.363,66.963c0-0.567,0-1.136,0-1.837
	C292.859,65.676,292.867,66.464,292.363,66.963z M292.355,69.487c0.512,0.547,0.535,1.319,0,1.821
	C292.355,70.742,292.355,70.177,292.355,69.487z M292.439,71.739c0.314,0.322,0.447,1.297,0.219,1.493
	c-0.062,0.058-0.338,0-0.344-0.027C292.25,72.721,292.083,72.215,292.439,71.739z M292.507,77.628
	c-0.377-0.456-0.385-1.259-0.021-1.734C292.851,76.336,292.861,77.16,292.507,77.628z M292.578,75.427
	c-0.104-0.004-0.203-0.01-0.305-0.014c0-0.455-0.008-0.907,0.008-1.358c0.006-0.07,0.133-0.163,0.221-0.188
	c0.049-0.018,0.184,0.07,0.191,0.125C292.771,74.483,292.908,74.99,292.578,75.427z M302.189,64.731
	c-0.09-0.021-0.232-0.103-0.234-0.162c-0.02-0.44-0.01-0.884-0.01-1.323c0.141,0,0.283,0,0.424-0.002
	c0,0.446,0.008,0.892-0.008,1.339C302.361,64.637,302.236,64.741,302.189,64.731z M302.289,65.133c0,0.681,0,1.217,0,1.751
	C301.783,66.362,301.794,65.709,302.289,65.133z M302.296,62.698c-0.516-0.44-0.5-1.154,0-1.71
	C302.296,61.648,302.296,62.174,302.296,62.698z M302.291,56.686c0,1.42,0,2.714,0,4.143
	C301.789,60.223,301.783,57.229,302.291,56.686z M302.076,71.797c0.094,0,0.189,0.002,0.285,0.003c0,0.458,0,0.917,0,1.377
	c-0.137-0.006-0.385,0.011-0.389-0.017C301.892,72.695,301.773,72.211,302.076,71.797z M302.3,69.623c0,0.547,0,1.092,0,1.746
	C301.804,70.902,301.777,70.162,302.3,69.623z M302.298,79.864c-0.514-0.446-0.525-3.468,0-4.054
	C302.298,77.22,302.298,78.498,302.298,79.864z M301.935,75.398c0-0.449-0.01-0.9,0.01-1.349c0.002-0.066,0.141-0.154,0.229-0.177
	c0.051-0.016,0.184,0.084,0.184,0.136c0.014,0.464,0.008,0.93,0.008,1.396C302.222,75.4,302.076,75.399,301.935,75.398z
	 M302.175,69.206c-0.373-0.514-0.381-1.299-0.021-1.817C302.513,67.853,302.521,68.66,302.175,69.206z M428.019,56.156
	c-0.086,0.01-0.189,0.029-0.299,0.031c-0.107,0.001-0.221-0.008-0.393-0.017c0.092-0.928,0.18-1.814,0.271-2.738
	c0.152,0.026,0.27,0.046,0.42,0.074C428.019,54.393,428.019,55.255,428.019,56.156z M430.144,56.172
	c-0.01-0.962-0.053-1.909,0.113-2.877c0.23,0.05,0.254,0.18,0.271,0.298c0.08,0.523,0.156,1.05,0.225,1.578
	c0.037,0.315,0.053,0.636,0.082,1C430.589,56.172,430.398,56.172,430.144,56.172z"/>
</svg>
